{
 "cells": [
  {
   "cell_type": "markdown",
   "id": "bc71c82b",
   "metadata": {},
   "source": [
    "Adventures of Huckleberry Finn by Mark Twain\n",
    "\n",
    "Source https://www.gutenberg.org/ebooks/76\n",
    "\n",
    "Ref https://en.wikipedia.org/wiki/Adventures_of_Huckleberry_Finn"
   ]
  },
  {
   "cell_type": "code",
   "execution_count": null,
   "id": "8e0fc48f",
   "metadata": {},
   "outputs": [],
   "source": [
    "# Concept art\n",
    "\n",
    "Summary: \n",
    "\n",
    "Genre: \n",
    "\n",
    "Background: \n",
    "\n",
    "Main charactor:\n",
    "\n",
    "Prompt:\n",
    "Main charactor + Background + Summary\n",
    "--ar 3:2 --no text\n",
    "\n",
    "https://cdn.discordapp.com/attachments/1061651026819678260/1084021900440772619/Screen_Shot_2566-03-11_at_14.47.44.png,\n",
    "19th century, USA\n",
    "sunny day Mississippi River,\n",
    "boy 13 years old, good nature,\n",
    "--ar 3:2 --no text\n",
    "    \n",
    "https://cdn.discordapp.com/attachments/1061651026819678260/1084308495098204251/Screen_Shot_2566-03-12_at_09.44.31.png\n",
    "19th century, USA, Missouri, sunny day\n",
    "drunk guy, over fifty year old, and had a very red face.\n",
    "waving on horse back, Everybody yelled at him and laughed at him,\n",
    "--ar 3:2 --no text\n"
   ]
  },
  {
   "cell_type": "code",
   "execution_count": null,
   "id": "0229b767",
   "metadata": {},
   "outputs": [],
   "source": [
    "# Youtube description\n",
    "\n",
    "Prompt: Write title, description, and keywords of youtube video of full audiobook of the classic book \"Adventures of Huckleberry Finn by Mark Twain\"\n",
    "    \n",
    "Title: Adventures of Huckleberry Finn by Mark Twain: Full Audiobook Edition - Part 1/2\n",
    "\n",
    "Description: Join Huckleberry Finn and his friend Jim on their journey down the Mississippi River in this full audiobook edition of the classic novel \"Adventures of Huckleberry Finn\" by Mark Twain. Experience the thrill and danger of their adventures as they encounter a host of colorful characters and confront the deep-seated prejudices of their time. Let the engaging narration and evocative soundscape transport you to the world of the American South in the mid-19th century.\n",
    "\n",
    "0:00:00 Chapter 1\n",
    "0:08:13 Chaptor 2\n",
    "0:21:49 Chaptor 3\n",
    "0:31:23 Chaptor 4\n",
    "0:39:27 Chaptor 5\n",
    "0:48:57 Chaptor 6\n",
    "1:05:17 Chaptor 7\n",
    "1:20:05 Chaptor 8\n",
    "1:47:14 Chaptor 9\n",
    "1:56:27 Chaptor 10\n",
    "2:04:15 Chaptor 11\n",
    "2:21:00 Chaptor 12\n",
    "2:37:46 Chaptor 13\n",
    "2:49:36 Chaptor 14\n",
    "2:59:21 Chaptor 15\n",
    "3:13:22 Chaptor 16\n",
    "3:33:29 Chaptor 17\n",
    "3:53:08 Chaptor 18\n",
    "4:21:09 Chaptor 19\n",
    "4:41:08 Chaptor 20\n",
    "        \n",
    "Credits\n",
    "Text: Project Gutenberg https://www.gutenberg.org/ebooks/76\n",
    "Voice: Google Cloud Text-to-Speech\n",
    "Produced by: The Classic Narrator 2023\n",
    "    \n",
    "Keywords: Adventures of Huckleberry Finn, Mark Twain, full audiobook, classic literature, adventure, Mississippi River, Huckleberry Finn, Jim, colorful characters, prejudices, American South, engaging narration, evocative soundscape, classic novel\n",
    "    \n",
    "    \n",
    "    "
   ]
  },
  {
   "cell_type": "code",
   "execution_count": null,
   "id": "b341ca34",
   "metadata": {},
   "outputs": [],
   "source": [
    "Title: Adventures of Huckleberry Finn by Mark Twain: Full Audiobook Edition - Part 2/2\n",
    "\n",
    "Description: Join Huckleberry Finn and his friend Jim on their journey down the Mississippi River in this full audiobook edition of the classic novel \"Adventures of Huckleberry Finn\" by Mark Twain. Experience the thrill and danger of their adventures as they encounter a host of colorful characters and confront the deep-seated prejudices of their time. Let the engaging narration and evocative soundscape transport you to the world of the American South in the mid-19th century.\n",
    "\n",
    "0:00:00 Chapter 21\n",
    "0:22:09 Chaptor 22\n",
    "0:34:16 Chaptor 23\n",
    "0:48:06 Chaptor 24\n",
    "1:02:18 Chaptor 25\n",
    "1:19:36 Chaptor 26\n",
    "1:36:39 Chaptor 27\n",
    "1:51:56 Chaptor 28\n",
    "2:13:08 Chaptor 29\n",
    "2:35:10 Chaptor 30\n",
    "2:42:30 Chaptor 31\n",
    "3:03:34 Chaptor 32\n",
    "3:17:23 Chaptor 33\n",
    "3:33:20 Chaptor 34\n",
    "3:46:32 Chaptor 35\n",
    "4:02:29 Chaptor 36\n",
    "4:14:50 Chaptor 37\n",
    "4:29:44 Chaptor 38\n",
    "4:45:18 Chaptor 39\n",
    "4:57:28 Chaptor 40\n",
    "5:10:45 Chaptor 41\n",
    "5:26:59 Chaptor 42\n",
    "5:45:08 Chaptor 43\n",
    "\n",
    "Credits\n",
    "Text: Project Gutenberg https://www.gutenberg.org/ebooks/76\n",
    "Voice: Google Cloud Text-to-Speech\n",
    "Produced by: The Classic Narrator 2023\n",
    "    \n",
    "Keywords: Adventures of Huckleberry Finn, Mark Twain, full audiobook, classic literature, adventure, Mississippi River, Huckleberry Finn, Jim, colorful characters, prejudices, American South, engaging narration, evocative soundscape, classic novel\n",
    "\n"
   ]
  },
  {
   "cell_type": "code",
   "execution_count": 16,
   "id": "77a554fb",
   "metadata": {},
   "outputs": [
    {
     "name": "stdout",
     "output_type": "stream",
     "text": [
      "Generate audio => output.mp3\n"
     ]
    },
    {
     "data": {
      "text/plain": [
       "1"
      ]
     },
     "execution_count": 16,
     "metadata": {},
     "output_type": "execute_result"
    }
   ],
   "source": [
    "# Voice test\n",
    "\n",
    "from TextToAudiobook import *\n",
    "test_tta = TextToAudiobook(\"test\")\n",
    "\n",
    "\n",
    "\n",
    "text = '''\n",
    "<speak>\n",
    "CHAPTER 21.\n",
    "Sword Exercise.—Hamlet’s Soliloquy.—They Loafed Around Town.—A Lazy\n",
    "Town.—Old Boggs.—Dead.\n",
    "\n",
    "“Nemmine why, Huck—but he ain’t comin’ back no mo.”\n",
    "\n",
    "But I kept at him; so at last he says:\n",
    "\n",
    "Dah , now, Huck, what I tell you?—what I tell you up dah on Jackson\n",
    "islan’? I  tole  you I got a hairy breas’, en what’s de sign un it; en\n",
    "I  tole  you I ben rich wunst, en gwineter to be rich  agin;  en it’s\n",
    "come true; en heah she  is! Dah , now! doan’ talk to  me —signs is\n",
    "signs , mine I tell you; en I knowed jis’ ’s well ’at I ’uz gwineter\n",
    "be rich agin as I’s a-stannin’ heah dis minute!\n",
    "</speak>\n",
    "'''\n",
    "\n",
    "# Test voices\n",
    "# voice = texttospeech.VoiceSelectionParams(\n",
    "#     language_code=\"en-GB\",\n",
    "#     name=\"en-GB-Neural2-A\",\n",
    "# )\n",
    "\n",
    "voice = texttospeech.VoiceSelectionParams(\n",
    "    language_code=\"en-US\",\n",
    "    name=\"en-US-Standard-F\",\n",
    ")\n",
    "\n",
    "\n",
    "audio_config = texttospeech.AudioConfig(\n",
    "    audio_encoding=texttospeech.AudioEncoding.MP3,\n",
    "    speaking_rate=0.9\n",
    ")\n",
    "\n",
    "test_tta.synthesize_ssml(text, \"output.mp3\", voice, audio_config)\n",
    "# test_tta.synthesize_text(text, \"output.mp3\", voice, audio_config)\n",
    "\n"
   ]
  },
  {
   "cell_type": "code",
   "execution_count": null,
   "id": "0326b8d9",
   "metadata": {},
   "outputs": [],
   "source": [
    "%load_ext autoreload\n",
    "%reload_ext autoreload\n",
    "%autoreload 2"
   ]
  },
  {
   "cell_type": "code",
   "execution_count": 45,
   "id": "c3793734",
   "metadata": {},
   "outputs": [],
   "source": [
    "# Text to script\n",
    "\n",
    "from TextToAudiobook import *\n",
    "\n",
    "folder_name = \"Huckleberry\"\n",
    "# file_name = \"76-1.txt\"\n",
    "file_name = \"76-2.txt\"\n",
    "\n",
    "test_tta = TextToAudiobook(folder_name, char_limit_per_call=500)"
   ]
  },
  {
   "cell_type": "code",
   "execution_count": 46,
   "id": "4b63cb09",
   "metadata": {},
   "outputs": [
    {
     "name": "stdout",
     "output_type": "stream",
     "text": [
      "Clean: 11656 lines\n",
      "./Huckleberry/project_file/clean/76-2.txt\n",
      "Tag: 11656 lines\n",
      "./Huckleberry/project_file/tag/76-2.txt\n",
      "Break: 11656 lines\n",
      "./Huckleberry/project_file/break/76-2.txt\n",
      "Split: 1287 files\n",
      "./Huckleberry/project_file/split/76-2_txt/\n"
     ]
    }
   ],
   "source": [
    "#1 Clean raw file and copy to clean folder\n",
    "print(test_tta.clean_txt_raw(file_name))\n",
    "\n",
    "#2 Tag speech in clean file and copy to tag folder\n",
    "print(test_tta.tag_txt_clean(file_name))\n",
    "\n",
    "#3 Mark break point by chapter and characters limit\n",
    "print(test_tta.break_txt_tag(file_name))\n",
    "\n",
    "#4 Split into files by chapter and characters break\n",
    "print(test_tta.split_txt_break(file_name))"
   ]
  },
  {
   "cell_type": "code",
   "execution_count": 53,
   "id": "750cd4eb",
   "metadata": {},
   "outputs": [
    {
     "name": "stdout",
     "output_type": "stream",
     "text": [
      "Generate audio => ./Huckleberry/project_file/audio/76-2_txt/0039_017.mp3\n",
      "Generate audio => ./Huckleberry/project_file/audio/76-2_txt/0039_018.mp3\n",
      "Generate audio => ./Huckleberry/project_file/audio/76-2_txt/0039_019.mp3\n",
      "Generate audio => ./Huckleberry/project_file/audio/76-2_txt/0039_020.mp3\n",
      "Generate audio => ./Huckleberry/project_file/audio/76-2_txt/0039_021.mp3\n",
      "Generate audio => ./Huckleberry/project_file/audio/76-2_txt/0039_022.mp3\n",
      "Generate audio => ./Huckleberry/project_file/audio/76-2_txt/0039_023.mp3\n",
      "Generate audio => ./Huckleberry/project_file/audio/76-2_txt/0039_024.mp3\n",
      "Generate audio => ./Huckleberry/project_file/audio/76-2_txt/0039_025.mp3\n",
      "Generate audio => ./Huckleberry/project_file/audio/76-2_txt/0040_001.mp3\n",
      "Generate audio => ./Huckleberry/project_file/audio/76-2_txt/0040_002.mp3\n",
      "Generate audio => ./Huckleberry/project_file/audio/76-2_txt/0040_003.mp3\n",
      "Generate audio => ./Huckleberry/project_file/audio/76-2_txt/0040_004.mp3\n",
      "Generate audio => ./Huckleberry/project_file/audio/76-2_txt/0040_005.mp3\n",
      "Generate audio => ./Huckleberry/project_file/audio/76-2_txt/0040_006.mp3\n",
      "Generate audio => ./Huckleberry/project_file/audio/76-2_txt/0040_007.mp3\n",
      "Generate audio => ./Huckleberry/project_file/audio/76-2_txt/0040_008.mp3\n",
      "Generate audio => ./Huckleberry/project_file/audio/76-2_txt/0040_009.mp3\n",
      "Generate audio => ./Huckleberry/project_file/audio/76-2_txt/0040_010.mp3\n",
      "Generate audio => ./Huckleberry/project_file/audio/76-2_txt/0040_011.mp3\n",
      "Generate audio => ./Huckleberry/project_file/audio/76-2_txt/0040_012.mp3\n",
      "Generate audio => ./Huckleberry/project_file/audio/76-2_txt/0040_013.mp3\n",
      "Generate audio => ./Huckleberry/project_file/audio/76-2_txt/0040_014.mp3\n",
      "Generate audio => ./Huckleberry/project_file/audio/76-2_txt/0040_015.mp3\n",
      "Generate audio => ./Huckleberry/project_file/audio/76-2_txt/0040_016.mp3\n",
      "Generate audio => ./Huckleberry/project_file/audio/76-2_txt/0040_017.mp3\n",
      "Generate audio => ./Huckleberry/project_file/audio/76-2_txt/0040_018.mp3\n",
      "Generate audio => ./Huckleberry/project_file/audio/76-2_txt/0040_019.mp3\n",
      "Generate audio => ./Huckleberry/project_file/audio/76-2_txt/0040_020.mp3\n",
      "Generate audio => ./Huckleberry/project_file/audio/76-2_txt/0040_021.mp3\n",
      "Generate audio => ./Huckleberry/project_file/audio/76-2_txt/0040_022.mp3\n",
      "Generate audio => ./Huckleberry/project_file/audio/76-2_txt/0040_023.mp3\n",
      "Generate audio => ./Huckleberry/project_file/audio/76-2_txt/0040_024.mp3\n",
      "Generate audio => ./Huckleberry/project_file/audio/76-2_txt/0040_025.mp3\n",
      "Generate audio => ./Huckleberry/project_file/audio/76-2_txt/0040_026.mp3\n",
      "Generate audio => ./Huckleberry/project_file/audio/76-2_txt/0040_027.mp3\n",
      "Generate audio => ./Huckleberry/project_file/audio/76-2_txt/0041_001.mp3\n",
      "Generate audio => ./Huckleberry/project_file/audio/76-2_txt/0041_002.mp3\n",
      "Generate audio => ./Huckleberry/project_file/audio/76-2_txt/0041_003.mp3\n",
      "Generate audio => ./Huckleberry/project_file/audio/76-2_txt/0041_004.mp3\n",
      "Generate audio => ./Huckleberry/project_file/audio/76-2_txt/0041_005.mp3\n",
      "Generate audio => ./Huckleberry/project_file/audio/76-2_txt/0041_006.mp3\n",
      "Generate audio => ./Huckleberry/project_file/audio/76-2_txt/0041_007.mp3\n",
      "Generate audio => ./Huckleberry/project_file/audio/76-2_txt/0041_008.mp3\n",
      "Generate audio => ./Huckleberry/project_file/audio/76-2_txt/0041_009.mp3\n",
      "Generate audio => ./Huckleberry/project_file/audio/76-2_txt/0041_010.mp3\n",
      "Generate audio => ./Huckleberry/project_file/audio/76-2_txt/0041_011.mp3\n",
      "Generate audio => ./Huckleberry/project_file/audio/76-2_txt/0041_012.mp3\n",
      "Generate audio => ./Huckleberry/project_file/audio/76-2_txt/0041_013.mp3\n",
      "Generate audio => ./Huckleberry/project_file/audio/76-2_txt/0041_014.mp3\n",
      "Generate audio => ./Huckleberry/project_file/audio/76-2_txt/0041_015.mp3\n",
      "Generate audio => ./Huckleberry/project_file/audio/76-2_txt/0041_016.mp3\n",
      "Generate audio => ./Huckleberry/project_file/audio/76-2_txt/0041_017.mp3\n",
      "Generate audio => ./Huckleberry/project_file/audio/76-2_txt/0041_018.mp3\n",
      "Generate audio => ./Huckleberry/project_file/audio/76-2_txt/0041_019.mp3\n",
      "Generate audio => ./Huckleberry/project_file/audio/76-2_txt/0041_020.mp3\n",
      "Generate audio => ./Huckleberry/project_file/audio/76-2_txt/0041_021.mp3\n",
      "Generate audio => ./Huckleberry/project_file/audio/76-2_txt/0041_022.mp3\n",
      "Generate audio => ./Huckleberry/project_file/audio/76-2_txt/0041_023.mp3\n",
      "Generate audio => ./Huckleberry/project_file/audio/76-2_txt/0041_024.mp3\n",
      "Generate audio => ./Huckleberry/project_file/audio/76-2_txt/0041_025.mp3\n",
      "Generate audio => ./Huckleberry/project_file/audio/76-2_txt/0041_026.mp3\n",
      "Generate audio => ./Huckleberry/project_file/audio/76-2_txt/0041_027.mp3\n",
      "Generate audio => ./Huckleberry/project_file/audio/76-2_txt/0041_028.mp3\n",
      "Generate audio => ./Huckleberry/project_file/audio/76-2_txt/0041_029.mp3\n",
      "Generate audio => ./Huckleberry/project_file/audio/76-2_txt/0041_030.mp3\n",
      "Generate audio => ./Huckleberry/project_file/audio/76-2_txt/0042_001.mp3\n",
      "Generate audio => ./Huckleberry/project_file/audio/76-2_txt/0042_002.mp3\n",
      "Generate audio => ./Huckleberry/project_file/audio/76-2_txt/0042_003.mp3\n",
      "Generate audio => ./Huckleberry/project_file/audio/76-2_txt/0042_004.mp3\n",
      "Generate audio => ./Huckleberry/project_file/audio/76-2_txt/0042_005.mp3\n",
      "Generate audio => ./Huckleberry/project_file/audio/76-2_txt/0042_006.mp3\n",
      "Generate audio => ./Huckleberry/project_file/audio/76-2_txt/0042_007.mp3\n",
      "Generate audio => ./Huckleberry/project_file/audio/76-2_txt/0042_008.mp3\n",
      "Generate audio => ./Huckleberry/project_file/audio/76-2_txt/0042_009.mp3\n",
      "Generate audio => ./Huckleberry/project_file/audio/76-2_txt/0042_010.mp3\n",
      "Generate audio => ./Huckleberry/project_file/audio/76-2_txt/0042_011.mp3\n",
      "Generate audio => ./Huckleberry/project_file/audio/76-2_txt/0042_012.mp3\n",
      "Generate audio => ./Huckleberry/project_file/audio/76-2_txt/0042_013.mp3\n",
      "Generate audio => ./Huckleberry/project_file/audio/76-2_txt/0042_014.mp3\n",
      "Generate audio => ./Huckleberry/project_file/audio/76-2_txt/0042_015.mp3\n",
      "Generate audio => ./Huckleberry/project_file/audio/76-2_txt/0042_016.mp3\n",
      "Generate audio => ./Huckleberry/project_file/audio/76-2_txt/0042_017.mp3\n",
      "Generate audio => ./Huckleberry/project_file/audio/76-2_txt/0042_018.mp3\n",
      "Generate audio => ./Huckleberry/project_file/audio/76-2_txt/0042_019.mp3\n",
      "Generate audio => ./Huckleberry/project_file/audio/76-2_txt/0042_020.mp3\n",
      "Generate audio => ./Huckleberry/project_file/audio/76-2_txt/0042_021.mp3\n",
      "Generate audio => ./Huckleberry/project_file/audio/76-2_txt/0042_022.mp3\n",
      "Generate audio => ./Huckleberry/project_file/audio/76-2_txt/0042_023.mp3\n",
      "Generate audio => ./Huckleberry/project_file/audio/76-2_txt/0042_024.mp3\n",
      "Generate audio => ./Huckleberry/project_file/audio/76-2_txt/0042_025.mp3\n",
      "Generate audio => ./Huckleberry/project_file/audio/76-2_txt/0042_026.mp3\n",
      "Generate audio => ./Huckleberry/project_file/audio/76-2_txt/0042_027.mp3\n",
      "Generate audio => ./Huckleberry/project_file/audio/76-2_txt/0042_028.mp3\n",
      "Generate audio => ./Huckleberry/project_file/audio/76-2_txt/0042_029.mp3\n",
      "Generate audio => ./Huckleberry/project_file/audio/76-2_txt/0042_030.mp3\n",
      "Generate audio => ./Huckleberry/project_file/audio/76-2_txt/0042_031.mp3\n",
      "Generate audio => ./Huckleberry/project_file/audio/76-2_txt/0042_032.mp3\n",
      "Generate audio => ./Huckleberry/project_file/audio/76-2_txt/0042_033.mp3\n",
      "Generate audio => ./Huckleberry/project_file/audio/76-2_txt/0042_034.mp3\n",
      "Generate audio => ./Huckleberry/project_file/audio/76-2_txt/0042_035.mp3\n",
      "Generate audio => ./Huckleberry/project_file/audio/76-2_txt/0042_036.mp3\n",
      "Generate audio => ./Huckleberry/project_file/audio/76-2_txt/0042_037.mp3\n",
      "Generate audio => ./Huckleberry/project_file/audio/76-2_txt/0043_001.mp3\n",
      "Generate audio => ./Huckleberry/project_file/audio/76-2_txt/0043_002.mp3\n",
      "Generate audio => ./Huckleberry/project_file/audio/76-2_txt/0043_003.mp3\n",
      "Generate audio => ./Huckleberry/project_file/audio/76-2_txt/0043_004.mp3\n",
      "Generate audio => ./Huckleberry/project_file/audio/76-2_txt/0043_005.mp3\n",
      "Generate audio => ./Huckleberry/project_file/audio/76-2_txt/0043_006.mp3\n",
      "Generate audio => ./Huckleberry/project_file/audio/76-2_txt/0043_007.mp3\n",
      "Generate audio => ./Huckleberry/project_file/audio/76-2_txt/0043_008.mp3\n",
      "Synthesize: 111 files\n",
      "./Huckleberry/project_file/audio/76-2_txt/\n"
     ]
    }
   ],
   "source": [
    "# Split into files by chapter and characters break\n",
    "voice = texttospeech.VoiceSelectionParams(\n",
    "    language_code=\"en-US\",\n",
    "    name=\"en-US-Standard-F\",\n",
    ")\n",
    "\n",
    "audio_config = texttospeech.AudioConfig(\n",
    "    audio_encoding=texttospeech.AudioEncoding.MP3,\n",
    "    speaking_rate=0.9\n",
    ")\n",
    "print(test_tta.synthesize_txt_split(file_name, file_limit=200, voice=voice, audio_config=audio_config))\n"
   ]
  },
  {
   "cell_type": "code",
   "execution_count": 54,
   "id": "ab7994d6",
   "metadata": {},
   "outputs": [
    {
     "name": "stdout",
     "output_type": "stream",
     "text": [
      "Generate track list: ./Huckleberry/project_file/audio/76-2_txt/track_list.txt [total: 700 files]\n"
     ]
    },
    {
     "name": "stderr",
     "output_type": "stream",
     "text": [
      "ffmpeg version 5.1.2 Copyright (c) 2000-2022 the FFmpeg developers\n",
      "  built with Apple clang version 14.0.0 (clang-1400.0.29.102)\n",
      "  configuration: --prefix=/usr/local/Cellar/ffmpeg/5.1.2 --enable-shared --enable-pthreads --enable-version3 --cc=clang --host-cflags= --host-ldflags= --enable-ffplay --enable-gnutls --enable-gpl --enable-libaom --enable-libbluray --enable-libdav1d --enable-libmp3lame --enable-libopus --enable-librav1e --enable-librist --enable-librubberband --enable-libsnappy --enable-libsrt --enable-libtesseract --enable-libtheora --enable-libvidstab --enable-libvmaf --enable-libvorbis --enable-libvpx --enable-libwebp --enable-libx264 --enable-libx265 --enable-libxml2 --enable-libxvid --enable-lzma --enable-libfontconfig --enable-libfreetype --enable-frei0r --enable-libass --enable-libopencore-amrnb --enable-libopencore-amrwb --enable-libopenjpeg --enable-libspeex --enable-libsoxr --enable-libzmq --enable-libzimg --disable-libjack --disable-indev=jack --enable-videotoolbox\n",
      "  libavutil      57. 28.100 / 57. 28.100\n",
      "  libavcodec     59. 37.100 / 59. 37.100\n",
      "  libavformat    59. 27.100 / 59. 27.100\n",
      "  libavdevice    59.  7.100 / 59.  7.100\n",
      "  libavfilter     8. 44.100 /  8. 44.100\n",
      "  libswscale      6.  7.100 /  6.  7.100\n",
      "  libswresample   4.  7.100 /  4.  7.100\n",
      "  libpostproc    56.  6.100 / 56.  6.100\n",
      "[mp3 @ 0x7fa96460b680] Estimating duration from bitrate, this may be inaccurate\n",
      "Input #0, concat, from './Huckleberry/project_file/audio/76-2_txt/track_list.txt':\n",
      "  Duration: N/A, start: 0.000000, bitrate: 32 kb/s\n",
      "  Stream #0:0: Audio: mp3, 24000 Hz, mono, fltp, 32 kb/s\n",
      "Output #0, mp3, to './Huckleberry/project_file/audio/76-2_txt.mp3':\n",
      "  Metadata:\n",
      "    TSSE            : Lavf59.27.100\n",
      "  Stream #0:0: Audio: mp3, 24000 Hz, mono, fltp, 32 kb/s\n",
      "Stream mapping:\n",
      "  Stream #0:0 -> #0:0 (copy)\n",
      "Press [q] to stop, [?] for help\n",
      "[mp3 @ 0x7fa96460b500] Estimating duration from bitrate, this may be inaccurate\n",
      "[mp3 @ 0x7fa964009300] Estimating duration from bitrate, this may be inaccurate\n",
      "    Last message repeated 1 times\n",
      "[mp3 @ 0x7fa962f05f80] Estimating duration from bitrate, this may be inaccurate\n",
      "[mp3 @ 0x7fa964009980] Estimating duration from bitrate, this may be inaccurate\n",
      "[mp3 @ 0x7fa96460c400] Estimating duration from bitrate, this may be inaccurate\n",
      "[mp3 @ 0x7fa96410b600] Estimating duration from bitrate, this may be inaccurate\n",
      "[mp3 @ 0x7fa962f061c0] Estimating duration from bitrate, this may be inaccurate\n",
      "[mp3 @ 0x7fa962f06140] Estimating duration from bitrate, this may be inaccurate\n",
      "[mp3 @ 0x7fa962f05f80] Estimating duration from bitrate, this may be inaccurate\n",
      "[mp3 @ 0x7fa964005240] Estimating duration from bitrate, this may be inaccurate\n",
      "[mp3 @ 0x7fa964005f80] Estimating duration from bitrate, this may be inaccurate\n",
      "[mp3 @ 0x7fa964005b80] Estimating duration from bitrate, this may be inaccurate\n",
      "[mp3 @ 0x7fa96460c400] Estimating duration from bitrate, this may be inaccurate\n",
      "[mp3 @ 0x7fa96410b800] Estimating duration from bitrate, this may be inaccurate\n",
      "[mp3 @ 0x7fa96410b600] Estimating duration from bitrate, this may be inaccurate\n",
      "    Last message repeated 1 times\n",
      "[mp3 @ 0x7fa964005f00] Estimating duration from bitrate, this may be inaccurate\n",
      "[mp3 @ 0x7fa962f05f40] Estimating duration from bitrate, this may be inaccurate\n",
      "    Last message repeated 1 times\n",
      "[mp3 @ 0x7fa964005240] Estimating duration from bitrate, this may be inaccurate\n",
      "[mp3 @ 0x7fa96460c580] Estimating duration from bitrate, this may be inaccurate\n",
      "[mp3 @ 0x7fa962f05f40] Estimating duration from bitrate, this may be inaccurate\n",
      "[mp3 @ 0x7fa964404740] Estimating duration from bitrate, this may be inaccurate\n",
      "[mp3 @ 0x7fa962f06040] Estimating duration from bitrate, this may be inaccurate\n",
      "[mp3 @ 0x7fa96460c400] Estimating duration from bitrate, this may be inaccurate\n",
      "[mp3 @ 0x7fa96460c740] Estimating duration from bitrate, this may be inaccurate\n",
      "[mp3 @ 0x7fa96460c400] Estimating duration from bitrate, this may be inaccurate\n",
      "[mp3 @ 0x7fa96410b640] Estimating duration from bitrate, this may be inaccurate\n",
      "[mp3 @ 0x7fa962f05f80] Estimating duration from bitrate, this may be inaccurate\n",
      "[mp3 @ 0x7fa96410b640] Estimating duration from bitrate, this may be inaccurate\n",
      "[mp3 @ 0x7fa964304d40] Estimating duration from bitrate, this may be inaccurate\n",
      "[mp3 @ 0x7fa962f06000] Estimating duration from bitrate, this may be inaccurate\n",
      "[mp3 @ 0x7fa96460c400] Estimating duration from bitrate, this may be inaccurate\n",
      "[mp3 @ 0x7fa962f05f40] Estimating duration from bitrate, this may be inaccurate\n",
      "[mp3 @ 0x7fa964009340] Estimating duration from bitrate, this may be inaccurate\n",
      "[mp3 @ 0x7fa964404780] Estimating duration from bitrate, this may be inaccurate\n",
      "[mp3 @ 0x7fa964009300] Estimating duration from bitrate, this may be inaccurate\n",
      "[mp3 @ 0x7fa96410b640] Estimating duration from bitrate, this may be inaccurate\n",
      "[mp3 @ 0x7fa96460c400] Estimating duration from bitrate, this may be inaccurate\n",
      "[mp3 @ 0x7fa962f05f80] Estimating duration from bitrate, this may be inaccurate\n",
      "[mp3 @ 0x7fa964005240] Estimating duration from bitrate, this may be inaccurate\n",
      "[mp3 @ 0x7fa96460c400] Estimating duration from bitrate, this may be inaccurate\n",
      "[mp3 @ 0x7fa962f05f80] Estimating duration from bitrate, this may be inaccurate\n",
      "[mp3 @ 0x7fa96460c400] Estimating duration from bitrate, this may be inaccurate\n",
      "[mp3 @ 0x7fa96460c740] Estimating duration from bitrate, this may be inaccurate\n",
      "[mp3 @ 0x7fa964504300] Estimating duration from bitrate, this may be inaccurate\n",
      "[mp3 @ 0x7fa96460c400] Estimating duration from bitrate, this may be inaccurate\n",
      "[mp3 @ 0x7fa96420c100] Estimating duration from bitrate, this may be inaccurate\n",
      "[mp3 @ 0x7fa96460c400] Estimating duration from bitrate, this may be inaccurate\n",
      "[mp3 @ 0x7fa964005400] Estimating duration from bitrate, this may be inaccurate\n",
      "[mp3 @ 0x7fa964005240] Estimating duration from bitrate, this may be inaccurate\n",
      "[mp3 @ 0x7fa964004380] Estimating duration from bitrate, this may be inaccurate\n",
      "[mp3 @ 0x7fa96460c400] Estimating duration from bitrate, this may be inaccurate\n",
      "[mp3 @ 0x7fa964404880] Estimating duration from bitrate, this may be inaccurate\n",
      "[mp3 @ 0x7fa96460c400] Estimating duration from bitrate, this may be inaccurate\n",
      "[mp3 @ 0x7fa962f05f80] Estimating duration from bitrate, this may be inaccurate\n",
      "    Last message repeated 3 times\n",
      "[mp3 @ 0x7fa964404780] Estimating duration from bitrate, this may be inaccurate\n",
      "[mp3 @ 0x7fa964004e40] Estimating duration from bitrate, this may be inaccurate\n",
      "[mp3 @ 0x7fa964004b00] Estimating duration from bitrate, this may be inaccurate\n",
      "[mp3 @ 0x7fa964004380] Estimating duration from bitrate, this may be inaccurate\n",
      "[mp3 @ 0x7fa96410b740] Estimating duration from bitrate, this may be inaccurate\n",
      "[mp3 @ 0x7fa962f05f80] Estimating duration from bitrate, this may be inaccurate\n",
      "[mp3 @ 0x7fa964304e40] Estimating duration from bitrate, this may be inaccurate\n",
      "[mp3 @ 0x7fa964504300] Estimating duration from bitrate, this may be inaccurate\n",
      "[mp3 @ 0x7fa964304340] Estimating duration from bitrate, this may be inaccurate\n",
      "[mp3 @ 0x7fa96410b640] Estimating duration from bitrate, this may be inaccurate\n",
      "[mp3 @ 0x7fa964304280] Estimating duration from bitrate, this may be inaccurate\n",
      "[mp3 @ 0x7fa96410b640] Estimating duration from bitrate, this may be inaccurate\n",
      "[mp3 @ 0x7fa96460c400] Estimating duration from bitrate, this may be inaccurate\n",
      "[mp3 @ 0x7fa962f05f80] Estimating duration from bitrate, this may be inaccurate\n",
      "[mp3 @ 0x7fa96420c100] Estimating duration from bitrate, this may be inaccurate\n",
      "[mp3 @ 0x7fa964009980] Estimating duration from bitrate, this may be inaccurate\n",
      "[mp3 @ 0x7fa96410b600] Estimating duration from bitrate, this may be inaccurate\n",
      "[mp3 @ 0x7fa964009300] Estimating duration from bitrate, this may be inaccurate\n",
      "[mp3 @ 0x7fa96410b7c0] Estimating duration from bitrate, this may be inaccurate\n",
      "[mp3 @ 0x7fa96410b600] Estimating duration from bitrate, this may be inaccurate\n",
      "[mp3 @ 0x7fa96420c100] Estimating duration from bitrate, this may be inaccurate\n",
      "[mp3 @ 0x7fa964504300] Estimating duration from bitrate, this may be inaccurate\n",
      "[mp3 @ 0x7fa96420c240] Estimating duration from bitrate, this may be inaccurate\n",
      "[mp3 @ 0x7fa964504400] Estimating duration from bitrate, this may be inaccurate\n",
      "[mp3 @ 0x7fa96410b640] Estimating duration from bitrate, this may be inaccurate\n",
      "[mp3 @ 0x7fa964006300] Estimating duration from bitrate, this may be inaccurate\n",
      "[mp3 @ 0x7fa96460c400] Estimating duration from bitrate, this may be inaccurate\n",
      "[mp3 @ 0x7fa96460c740] Estimating duration from bitrate, this may be inaccurate\n",
      "[mp3 @ 0x7fa962f05f80] Estimating duration from bitrate, this may be inaccurate\n",
      "[mp3 @ 0x7fa964009300] Estimating duration from bitrate, this may be inaccurate\n",
      "    Last message repeated 1 times\n",
      "[mp3 @ 0x7fa96460c400] Estimating duration from bitrate, this may be inaccurate\n",
      "[mp3 @ 0x7fa96410b7c0] Estimating duration from bitrate, this may be inaccurate\n",
      "[mp3 @ 0x7fa96400aa40] Estimating duration from bitrate, this may be inaccurate\n"
     ]
    },
    {
     "name": "stderr",
     "output_type": "stream",
     "text": [
      "[mp3 @ 0x7fa96400a940] Estimating duration from bitrate, this may be inaccurate\n",
      "[mp3 @ 0x7fa96410b640] Estimating duration from bitrate, this may be inaccurate\n",
      "    Last message repeated 1 times\n",
      "[mp3 @ 0x7fa96420c100] Estimating duration from bitrate, this may be inaccurate\n",
      "[mp3 @ 0x7fa96400a880] Estimating duration from bitrate, this may be inaccurate\n",
      "[mp3 @ 0x7fa964009300] Estimating duration from bitrate, this may be inaccurate\n",
      "[mp3 @ 0x7fa96410b900] Estimating duration from bitrate, this may be inaccurate\n",
      "[mp3 @ 0x7fa96460c400] Estimating duration from bitrate, this may be inaccurate\n",
      "[mp3 @ 0x7fa96410b740] Estimating duration from bitrate, this may be inaccurate\n",
      "[mp3 @ 0x7fa964009300] Estimating duration from bitrate, this may be inaccurate\n",
      "    Last message repeated 2 times\n",
      "[mp3 @ 0x7fa962f061c0] Estimating duration from bitrate, this may be inaccurate\n",
      "[mp3 @ 0x7fa962f06140] Estimating duration from bitrate, this may be inaccurate\n",
      "[mp3 @ 0x7fa962f05f80] Estimating duration from bitrate, this may be inaccurate\n",
      "    Last message repeated 2 times\n",
      "[mp3 @ 0x7fa96460c400] Estimating duration from bitrate, this may be inaccurate\n",
      "[mp3 @ 0x7fa964004380] Estimating duration from bitrate, this may be inaccurate\n",
      "[mp3 @ 0x7fa96410b600] Estimating duration from bitrate, this may be inaccurate\n",
      "[mp3 @ 0x7fa9640046c0] Estimating duration from bitrate, this may be inaccurate\n",
      "[mp3 @ 0x7fa962f05f80] Estimating duration from bitrate, this may be inaccurate\n",
      "[mp3 @ 0x7fa96410b640] Estimating duration from bitrate, this may be inaccurate\n",
      "[mp3 @ 0x7fa964004380] Estimating duration from bitrate, this may be inaccurate\n",
      "[mp3 @ 0x7fa96410b640] Estimating duration from bitrate, this may be inaccurate\n",
      "[mp3 @ 0x7fa964004380] Estimating duration from bitrate, this may be inaccurate\n",
      "[mp3 @ 0x7fa96410b640] Estimating duration from bitrate, this may be inaccurate\n",
      "    Last message repeated 3 times\n",
      "[mp3 @ 0x7fa964009440] Estimating duration from bitrate, this may be inaccurate\n",
      "[mp3 @ 0x7fa96460c440] Estimating duration from bitrate, this may be inaccurate\n",
      "[mp3 @ 0x7fa964006300] Estimating duration from bitrate, this may be inaccurate\n",
      "[mp3 @ 0x7fa964006640] Estimating duration from bitrate, this may be inaccurate\n",
      "[mp3 @ 0x7fa96460c400] Estimating duration from bitrate, this may be inaccurate\n",
      "[mp3 @ 0x7fa964304280] Estimating duration from bitrate, this may be inaccurate\n",
      "[mp3 @ 0x7fa964004380] Estimating duration from bitrate, this may be inaccurate\n",
      "[mp3 @ 0x7fa96410b640] Estimating duration from bitrate, this may be inaccurate\n",
      "[mp3 @ 0x7fa962f05f80] Estimating duration from bitrate, this may be inaccurate\n",
      "[mp3 @ 0x7fa96410b640] Estimating duration from bitrate, this may be inaccurate\n",
      "[mp3 @ 0x7fa96460c400] Estimating duration from bitrate, this may be inaccurate\n",
      "[mp3 @ 0x7fa96410b640] Estimating duration from bitrate, this may be inaccurate\n",
      "[mp3 @ 0x7fa96410b600] Estimating duration from bitrate, this may be inaccurate\n",
      "[mp3 @ 0x7fa962f06100] Estimating duration from bitrate, this may be inaccurate\n",
      "[mp3 @ 0x7fa96410b640] Estimating duration from bitrate, this may be inaccurate\n",
      "[mp3 @ 0x7fa964304300] Estimating duration from bitrate, this may be inaccurate\n",
      "[mp3 @ 0x7fa962f06180] Estimating duration from bitrate, this may be inaccurate\n",
      "[mp3 @ 0x7fa962f05f40] Estimating duration from bitrate, this may be inaccurate\n",
      "[mp3 @ 0x7fa96410b700] Estimating duration from bitrate, this may be inaccurate\n",
      "[mp3 @ 0x7fa964009300] Estimating duration from bitrate, this may be inaccurate\n",
      "[mp3 @ 0x7fa964404900] Estimating duration from bitrate, this may be inaccurate\n",
      "[mp3 @ 0x7fa96410b640] Estimating duration from bitrate, this may be inaccurate\n",
      "[mp3 @ 0x7fa962f05f80] Estimating duration from bitrate, this may be inaccurate\n",
      "[mp3 @ 0x7fa96410b7c0] Estimating duration from bitrate, this may be inaccurate\n",
      "[mp3 @ 0x7fa962f06180] Estimating duration from bitrate, this may be inaccurate\n",
      "[mp3 @ 0x7fa96460c400] Estimating duration from bitrate, this may be inaccurate\n",
      "[mp3 @ 0x7fa96460c740] Estimating duration from bitrate, this may be inaccurate\n",
      "[mp3 @ 0x7fa962f061c0] Estimating duration from bitrate, this may be inaccurate\n",
      "[mp3 @ 0x7fa962f06140] Estimating duration from bitrate, this may be inaccurate\n",
      "[mp3 @ 0x7fa96400a880] Estimating duration from bitrate, this may be inaccurate\n",
      "[mp3 @ 0x7fa96410b600] Estimating duration from bitrate, this may be inaccurate\n",
      "[mp3 @ 0x7fa962f05f80] Estimating duration from bitrate, this may be inaccurate\n",
      "[mp3 @ 0x7fa96400a880] Estimating duration from bitrate, this may be inaccurate\n",
      "[mp3 @ 0x7fa962f05f40] Estimating duration from bitrate, this may be inaccurate\n",
      "[mp3 @ 0x7fa96400a880] Estimating duration from bitrate, this may be inaccurate\n",
      "[mp3 @ 0x7fa96460c400] Estimating duration from bitrate, this may be inaccurate\n",
      "[mp3 @ 0x7fa96410b640] Estimating duration from bitrate, this may be inaccurate\n",
      "[mp3 @ 0x7fa962f05f80] Estimating duration from bitrate, this may be inaccurate\n",
      "[mp3 @ 0x7fa96410b640] Estimating duration from bitrate, this may be inaccurate\n",
      "[mp3 @ 0x7fa962f05f40] Estimating duration from bitrate, this may be inaccurate\n",
      "    Last message repeated 1 times\n",
      "[mp3 @ 0x7fa962f064c0] Estimating duration from bitrate, this may be inaccurate\n",
      "[mp3 @ 0x7fa962f06300] Estimating duration from bitrate, this may be inaccurate\n",
      "[mp3 @ 0x7fa962f06240] Estimating duration from bitrate, this may be inaccurate\n",
      "[mp3 @ 0x7fa96460c400] Estimating duration from bitrate, this may be inaccurate\n",
      "[mp3 @ 0x7fa96460c740] Estimating duration from bitrate, this may be inaccurate\n",
      "[mp3 @ 0x7fa964006400] Estimating duration from bitrate, this may be inaccurate\n",
      "[mp3 @ 0x7fa96410b640] Estimating duration from bitrate, this may be inaccurate\n",
      "[mp3 @ 0x7fa962f05f80] Estimating duration from bitrate, this may be inaccurate\n",
      "    Last message repeated 3 times\n",
      "[mp3 @ 0x7fa96460c400] Estimating duration from bitrate, this may be inaccurate\n",
      "[mp3 @ 0x7fa962f05f40] Estimating duration from bitrate, this may be inaccurate\n",
      "    Last message repeated 1 times\n",
      "[mp3 @ 0x7fa96410b7c0] Estimating duration from bitrate, this may be inaccurate\n",
      "[mp3 @ 0x7fa962f05f40] Estimating duration from bitrate, this may be inaccurate\n",
      "    Last message repeated 1 times\n",
      "[mp3 @ 0x7fa96410b640] Estimating duration from bitrate, this may be inaccurate\n",
      "[mp3 @ 0x7fa96460c740] Estimating duration from bitrate, this may be inaccurate\n",
      "[mp3 @ 0x7fa962f05f80] Estimating duration from bitrate, this may be inaccurate\n",
      "[mp3 @ 0x7fa96410b640] Estimating duration from bitrate, this may be inaccurate\n",
      "[mp3 @ 0x7fa962f061c0] Estimating duration from bitrate, this may be inaccurate\n",
      "[mp3 @ 0x7fa962f06180] Estimating duration from bitrate, this may be inaccurate\n",
      "[mp3 @ 0x7fa962f06100] Estimating duration from bitrate, this may be inaccurate\n",
      "[mp3 @ 0x7fa962f05f40] Estimating duration from bitrate, this may be inaccurate\n",
      "    Last message repeated 2 times\n",
      "[mp3 @ 0x7fa96460c400] Estimating duration from bitrate, this may be inaccurate\n",
      "[mp3 @ 0x7fa962f05f40] Estimating duration from bitrate, this may be inaccurate\n",
      "[mp3 @ 0x7fa962f06380] Estimating duration from bitrate, this may be inaccurate\n",
      "[mp3 @ 0x7fa962f06100] Estimating duration from bitrate, this may be inaccurate\n",
      "[mp3 @ 0x7fa962f05f40] Estimating duration from bitrate, this may be inaccurate\n",
      "    Last message repeated 3 times\n",
      "[mp3 @ 0x7fa962f05f40] Estimating duration from bitrate, this may be inaccurate\n",
      "    Last message repeated 5 times\n",
      "[mp3 @ 0x7fa962f06d00] Estimating duration from bitrate, this may be inaccurate\n",
      "[mp3 @ 0x7fa962f06100] Estimating duration from bitrate, this may be inaccurate\n",
      "[mp3 @ 0x7fa962f05f40] Estimating duration from bitrate, this may be inaccurate\n",
      "[mp3 @ 0x7fa96410b7c0] Estimating duration from bitrate, this may be inaccurate\n",
      "[mp3 @ 0x7fa96410b600] Estimating duration from bitrate, this may be inaccurate\n",
      "[mp3 @ 0x7fa962f05f40] Estimating duration from bitrate, this may be inaccurate\n",
      "    Last message repeated 2 times\n",
      "[mp3 @ 0x7fa96410b640] Estimating duration from bitrate, this may be inaccurate\n",
      "[mp3 @ 0x7fa962f061c0] Estimating duration from bitrate, this may be inaccurate\n",
      "[mp3 @ 0x7fa962f06180] Estimating duration from bitrate, this may be inaccurate\n",
      "[mp3 @ 0x7fa964004380] Estimating duration from bitrate, this may be inaccurate\n",
      "    Last message repeated 1 times\n",
      "[mp3 @ 0x7fa962f05f80] Estimating duration from bitrate, this may be inaccurate\n",
      "    Last message repeated 2 times\n",
      "[mp3 @ 0x7fa964004580] Estimating duration from bitrate, this may be inaccurate\n",
      "[mp3 @ 0x7fa962f05f40] Estimating duration from bitrate, this may be inaccurate\n",
      "[mp3 @ 0x7fa964004380] Estimating duration from bitrate, this may be inaccurate\n",
      "[mp3 @ 0x7fa962f05f40] Estimating duration from bitrate, this may be inaccurate\n",
      "    Last message repeated 2 times\n",
      "[mp3 @ 0x7fa962f06380] Estimating duration from bitrate, this may be inaccurate\n",
      "[mp3 @ 0x7fa962f06100] Estimating duration from bitrate, this may be inaccurate\n",
      "[mp3 @ 0x7fa962f05f40] Estimating duration from bitrate, this may be inaccurate\n",
      "    Last message repeated 1 times\n",
      "[mp3 @ 0x7fa96460c400] Estimating duration from bitrate, this may be inaccurate\n",
      "[mp3 @ 0x7fa962f05f40] Estimating duration from bitrate, this may be inaccurate\n",
      "[mp3 @ 0x7fa96460c400] Estimating duration from bitrate, this may be inaccurate\n",
      "[mp3 @ 0x7fa962f05f40] Estimating duration from bitrate, this may be inaccurate\n",
      "[mp3 @ 0x7fa96410b640] Estimating duration from bitrate, this may be inaccurate\n",
      "[mp3 @ 0x7fa96460c400] Estimating duration from bitrate, this may be inaccurate\n",
      "[mp3 @ 0x7fa962f05f80] Estimating duration from bitrate, this may be inaccurate\n",
      "[mp3 @ 0x7fa964004380] Estimating duration from bitrate, this may be inaccurate\n",
      "[mp3 @ 0x7fa96410b7c0] Estimating duration from bitrate, this may be inaccurate\n",
      "[mp3 @ 0x7fa964004380] Estimating duration from bitrate, this may be inaccurate\n"
     ]
    },
    {
     "name": "stderr",
     "output_type": "stream",
     "text": [
      "    Last message repeated 1 times\n",
      "[mp3 @ 0x7fa96410b640] Estimating duration from bitrate, this may be inaccurate\n",
      "[mp3 @ 0x7fa96460c400] Estimating duration from bitrate, this may be inaccurate\n",
      "[mp3 @ 0x7fa96420c100] Estimating duration from bitrate, this may be inaccurate\n",
      "[mp3 @ 0x7fa96460c400] Estimating duration from bitrate, this may be inaccurate\n",
      "[mp3 @ 0x7fa96410b640] Estimating duration from bitrate, this may be inaccurate\n",
      "    Last message repeated 1 times\n",
      "[mp3 @ 0x7fa962f05f40] Estimating duration from bitrate, this may be inaccurate\n",
      "[mp3 @ 0x7fa964009300] Estimating duration from bitrate, this may be inaccurate\n",
      "    Last message repeated 1 times\n",
      "[mp3 @ 0x7fa96460b500] Estimating duration from bitrate, this may be inaccurate\n",
      "[mp3 @ 0x7fa964009440] Estimating duration from bitrate, this may be inaccurate\n",
      "[mp3 @ 0x7fa962f05f80] Estimating duration from bitrate, this may be inaccurate\n",
      "[mp3 @ 0x7fa9640063c0] Estimating duration from bitrate, this may be inaccurate\n",
      "[mp3 @ 0x7fa964006300] Estimating duration from bitrate, this may be inaccurate\n",
      "[mp3 @ 0x7fa96410b640] Estimating duration from bitrate, this may be inaccurate\n",
      "    Last message repeated 1 times\n",
      "[mp3 @ 0x7fa96400aa40] Estimating duration from bitrate, this may be inaccurate\n",
      "[mp3 @ 0x7fa96420c100] Estimating duration from bitrate, this may be inaccurate\n",
      "[mp3 @ 0x7fa962f05f40] Estimating duration from bitrate, this may be inaccurate\n",
      "[mp3 @ 0x7fa96410b640] Estimating duration from bitrate, this may be inaccurate\n",
      "[mp3 @ 0x7fa96460b500] Estimating duration from bitrate, this may be inaccurate\n",
      "[mp3 @ 0x7fa96410b640] Estimating duration from bitrate, this may be inaccurate\n",
      "[mp3 @ 0x7fa96460b500] Estimating duration from bitrate, this may be inaccurate\n",
      "[mp3 @ 0x7fa962f05f40] Estimating duration from bitrate, this may be inaccurate\n",
      "    Last message repeated 1 times\n",
      "[mp3 @ 0x7fa964304280] Estimating duration from bitrate, this may be inaccurate\n",
      "[mp3 @ 0x7fa96460c400] Estimating duration from bitrate, this may be inaccurate\n",
      "[mp3 @ 0x7fa962f05f80] Estimating duration from bitrate, this may be inaccurate\n",
      "[mp3 @ 0x7fa964304280] Estimating duration from bitrate, this may be inaccurate\n",
      "[mp3 @ 0x7fa96460b500] Estimating duration from bitrate, this may be inaccurate\n",
      "[mp3 @ 0x7fa96410b640] Estimating duration from bitrate, this may be inaccurate\n",
      "[mp3 @ 0x7fa96410b600] Estimating duration from bitrate, this may be inaccurate\n",
      "[mp3 @ 0x7fa96400a880] Estimating duration from bitrate, this may be inaccurate\n",
      "[mp3 @ 0x7fa962f06100] Estimating duration from bitrate, this may be inaccurate\n",
      "[mp3 @ 0x7fa96460b500] Estimating duration from bitrate, this may be inaccurate\n",
      "    Last message repeated 1 times\n",
      "[mp3 @ 0x7fa96410b640] Estimating duration from bitrate, this may be inaccurate\n",
      "[mp3 @ 0x7fa96410b600] Estimating duration from bitrate, this may be inaccurate\n",
      "[mp3 @ 0x7fa96400a880] Estimating duration from bitrate, this may be inaccurate\n",
      "[mp3 @ 0x7fa964006300] Estimating duration from bitrate, this may be inaccurate\n",
      "[mp3 @ 0x7fa962f05f80] Estimating duration from bitrate, this may be inaccurate\n",
      "[mp3 @ 0x7fa96460b500] Estimating duration from bitrate, this may be inaccurate\n",
      "[mp3 @ 0x7fa962f05f40] Estimating duration from bitrate, this may be inaccurate\n",
      "[mp3 @ 0x7fa96460b500] Estimating duration from bitrate, this may be inaccurate\n",
      "[mp3 @ 0x7fa962f06040] Estimating duration from bitrate, this may be inaccurate\n",
      "[mp3 @ 0x7fa96460b500] Estimating duration from bitrate, this may be inaccurate\n",
      "[mp3 @ 0x7fa964504300] Estimating duration from bitrate, this may be inaccurate\n",
      "[mp3 @ 0x7fa962f06100] Estimating duration from bitrate, this may be inaccurate\n",
      "[mp3 @ 0x7fa96400a880] Estimating duration from bitrate, this may be inaccurate\n",
      "[mp3 @ 0x7fa96460c400] Estimating duration from bitrate, this may be inaccurate\n",
      "[mp3 @ 0x7fa962f05f80] Estimating duration from bitrate, this may be inaccurate\n",
      "[mp3 @ 0x7fa96460b500] Estimating duration from bitrate, this may be inaccurate\n",
      "[mp3 @ 0x7fa962f05f40] Estimating duration from bitrate, this may be inaccurate\n",
      "[mp3 @ 0x7fa964304280] Estimating duration from bitrate, this may be inaccurate\n",
      "[mp3 @ 0x7fa962f05f40] Estimating duration from bitrate, this may be inaccurate\n",
      "[mp3 @ 0x7fa96460c400] Estimating duration from bitrate, this may be inaccurate\n",
      "[mp3 @ 0x7fa964304280] Estimating duration from bitrate, this may be inaccurate\n",
      "[mp3 @ 0x7fa96460b700] Estimating duration from bitrate, this may be inaccurate\n",
      "[mp3 @ 0x7fa96460b5c0] Estimating duration from bitrate, this may be inaccurate\n",
      "[mp3 @ 0x7fa96460b500] Estimating duration from bitrate, this may be inaccurate\n",
      "    Last message repeated 1 times\n",
      "[mp3 @ 0x7fa96460c480] Estimating duration from bitrate, this may be inaccurate\n",
      "[mp3 @ 0x7fa96410b740] Estimating duration from bitrate, this may be inaccurate\n",
      "[mp3 @ 0x7fa964006300] Estimating duration from bitrate, this may be inaccurate\n",
      "[mp3 @ 0x7fa96410b640] Estimating duration from bitrate, this may be inaccurate\n",
      "[mp3 @ 0x7fa9644049c0] Estimating duration from bitrate, this may be inaccurate\n",
      "[mp3 @ 0x7fa962f05f80] Estimating duration from bitrate, this may be inaccurate\n",
      "    Last message repeated 4 times\n",
      "[mp3 @ 0x7fa96410b640] Estimating duration from bitrate, this may be inaccurate\n",
      "[mp3 @ 0x7fa962f05f40] Estimating duration from bitrate, this may be inaccurate\n",
      "[mp3 @ 0x7fa962f06dc0] Estimating duration from bitrate, this may be inaccurate\n",
      "[mp3 @ 0x7fa964404780] Estimating duration from bitrate, this may be inaccurate\n",
      "[mp3 @ 0x7fa96460b500] Estimating duration from bitrate, this may be inaccurate\n",
      "[mp3 @ 0x7fa96410b640] Estimating duration from bitrate, this may be inaccurate\n",
      "[mp3 @ 0x7fa96400a880] Estimating duration from bitrate, this may be inaccurate\n",
      "    Last message repeated 1 times\n",
      "[mp3 @ 0x7fa96410b7c0] Estimating duration from bitrate, this may be inaccurate\n",
      "[mp3 @ 0x7fa96460b500] Estimating duration from bitrate, this may be inaccurate\n",
      "[mp3 @ 0x7fa964504300] Estimating duration from bitrate, this may be inaccurate\n",
      "[mp3 @ 0x7fa96460c400] Estimating duration from bitrate, this may be inaccurate\n",
      "[mp3 @ 0x7fa962f05f80] Estimating duration from bitrate, this may be inaccurate\n",
      "    Last message repeated 1 times\n",
      "[mp3 @ 0x7fa96460b5c0] Estimating duration from bitrate, this may be inaccurate\n",
      "[mp3 @ 0x7fa962f05f40] Estimating duration from bitrate, this may be inaccurate\n",
      "    Last message repeated 1 times\n",
      "[mp3 @ 0x7fa96460b5c0] Estimating duration from bitrate, this may be inaccurate\n",
      "[mp3 @ 0x7fa964009300] Estimating duration from bitrate, this may be inaccurate\n",
      "[mp3 @ 0x7fa96460c400] Estimating duration from bitrate, this may be inaccurate\n",
      "[mp3 @ 0x7fa96410b640] Estimating duration from bitrate, this may be inaccurate\n",
      "[mp3 @ 0x7fa962f05f80] Estimating duration from bitrate, this may be inaccurate\n",
      "[mp3 @ 0x7fa964504300] Estimating duration from bitrate, this may be inaccurate\n",
      "[mp3 @ 0x7fa964304280] Estimating duration from bitrate, this may be inaccurate\n",
      "[mp3 @ 0x7fa964504580] Estimating duration from bitrate, this may be inaccurate\n",
      "[mp3 @ 0x7fa964009980] Estimating duration from bitrate, this may be inaccurate\n",
      "[mp3 @ 0x7fa962f05f80] Estimating duration from bitrate, this may be inaccurate\n",
      "    Last message repeated 1 times\n",
      "[mp3 @ 0x7fa96460b500] Estimating duration from bitrate, this may be inaccurate\n",
      "[mp3 @ 0x7fa962f05f40] Estimating duration from bitrate, this may be inaccurate\n",
      "[mp3 @ 0x7fa96460b500] Estimating duration from bitrate, this may be inaccurate\n",
      "[mp3 @ 0x7fa96410b7c0] Estimating duration from bitrate, this may be inaccurate\n",
      "[mp3 @ 0x7fa96410b600] Estimating duration from bitrate, this may be inaccurate\n",
      "[mp3 @ 0x7fa962f05f80] Estimating duration from bitrate, this may be inaccurate\n",
      "    Last message repeated 2 times\n",
      "[mp3 @ 0x7fa96410b640] Estimating duration from bitrate, this may be inaccurate\n",
      "[mp3 @ 0x7fa962f05f40] Estimating duration from bitrate, this may be inaccurate\n",
      "[mp3 @ 0x7fa962f06280] Estimating duration from bitrate, this may be inaccurate\n",
      "[mp3 @ 0x7fa964006300] Estimating duration from bitrate, this may be inaccurate\n",
      "[mp3 @ 0x7fa964006640] Estimating duration from bitrate, this may be inaccurate\n",
      "[mp3 @ 0x7fa96460b500] Estimating duration from bitrate, this may be inaccurate\n",
      "[mp3 @ 0x7fa96410b640] Estimating duration from bitrate, this may be inaccurate\n",
      "[mp3 @ 0x7fa962f05f80] Estimating duration from bitrate, this may be inaccurate\n",
      "[mp3 @ 0x7fa96410b7c0] Estimating duration from bitrate, this may be inaccurate\n",
      "[mp3 @ 0x7fa964006300] Estimating duration from bitrate, this may be inaccurate\n",
      "[mp3 @ 0x7fa96410b640] Estimating duration from bitrate, this may be inaccurate\n",
      "[mp3 @ 0x7fa962f05f80] Estimating duration from bitrate, this may be inaccurate\n",
      "[mp3 @ 0x7fa96460c400] Estimating duration from bitrate, this may be inaccurate\n",
      "[mp3 @ 0x7fa962f05f40] Estimating duration from bitrate, this may be inaccurate\n",
      "[mp3 @ 0x7fa964004dc0] Estimating duration from bitrate, this may be inaccurate\n",
      "[mp3 @ 0x7fa962f05f40] Estimating duration from bitrate, this may be inaccurate\n",
      "[mp3 @ 0x7fa96460b500] Estimating duration from bitrate, this may be inaccurate\n",
      "[mp3 @ 0x7fa96460c400] Estimating duration from bitrate, this may be inaccurate\n",
      "    Last message repeated 1 times\n",
      "[mp3 @ 0x7fa96460b500] Estimating duration from bitrate, this may be inaccurate\n",
      "[mp3 @ 0x7fa962f05f80] Estimating duration from bitrate, this may be inaccurate\n",
      "    Last message repeated 2 times\n",
      "[mp3 @ 0x7fa962f063c0] Estimating duration from bitrate, this may be inaccurate\n",
      "[mp3 @ 0x7fa96410b640] Estimating duration from bitrate, this may be inaccurate\n",
      "[mp3 @ 0x7fa964004380] Estimating duration from bitrate, this may be inaccurate\n",
      "[mp3 @ 0x7fa96460b500] Estimating duration from bitrate, this may be inaccurate\n",
      "[mp3 @ 0x7fa964004380] Estimating duration from bitrate, this may be inaccurate\n",
      "[mp3 @ 0x7fa964009300] Estimating duration from bitrate, this may be inaccurate\n",
      "[mp3 @ 0x7fa964004380] Estimating duration from bitrate, this may be inaccurate\n"
     ]
    },
    {
     "name": "stderr",
     "output_type": "stream",
     "text": [
      "[mp3 @ 0x7fa9640046c0] Estimating duration from bitrate, this may be inaccurate\n",
      "[mp3 @ 0x7fa9643042c0] Estimating duration from bitrate, this may be inaccurate\n",
      "[mp3 @ 0x7fa96410b780] Estimating duration from bitrate, this may be inaccurate\n",
      "[mp3 @ 0x7fa96400a880] Estimating duration from bitrate, this may be inaccurate\n",
      "[mp3 @ 0x7fa9640093c0] Estimating duration from bitrate, this may be inaccurate\n",
      "[mp3 @ 0x7fa96460b500] Estimating duration from bitrate, this may be inaccurate\n",
      "[mp3 @ 0x7fa962f05f80] Estimating duration from bitrate, this may be inaccurate\n",
      "    Last message repeated 1 times\n",
      "[mp3 @ 0x7fa96460c400] Estimating duration from bitrate, this may be inaccurate\n",
      "[mp3 @ 0x7fa964009300] Estimating duration from bitrate, this may be inaccurate\n",
      "[mp3 @ 0x7fa96460b500] Estimating duration from bitrate, this may be inaccurate\n",
      "[mp3 @ 0x7fa96410b640] Estimating duration from bitrate, this may be inaccurate\n",
      "[mp3 @ 0x7fa96460c400] Estimating duration from bitrate, this may be inaccurate\n",
      "[mp3 @ 0x7fa962f05f80] Estimating duration from bitrate, this may be inaccurate\n",
      "[mp3 @ 0x7fa96460c400] Estimating duration from bitrate, this may be inaccurate\n",
      "[mp3 @ 0x7fa96410b640] Estimating duration from bitrate, this may be inaccurate\n",
      "[mp3 @ 0x7fa96410b600] Estimating duration from bitrate, this may be inaccurate\n",
      "[mp3 @ 0x7fa96460b500] Estimating duration from bitrate, this may be inaccurate\n",
      "[mp3 @ 0x7fa96410b740] Estimating duration from bitrate, this may be inaccurate\n",
      "[mp3 @ 0x7fa96460b500] Estimating duration from bitrate, this may be inaccurate\n",
      "[mp3 @ 0x7fa962f05f80] Estimating duration from bitrate, this may be inaccurate\n",
      "    Last message repeated 1 times\n",
      "[mp3 @ 0x7fa962f05f80] Estimating duration from bitrate, this may be inaccurate\n",
      "[mp3 @ 0x7fa964009300] Estimating duration from bitrate, this may be inaccurate\n",
      "    Last message repeated 1 times\n",
      "[mp3 @ 0x7fa96410b640] Estimating duration from bitrate, this may be inaccurate\n",
      "[mp3 @ 0x7fa96460b500] Estimating duration from bitrate, this may be inaccurate\n",
      "[mp3 @ 0x7fa962f06740] Estimating duration from bitrate, this may be inaccurate\n",
      "[mp3 @ 0x7fa964009540] Estimating duration from bitrate, this may be inaccurate\n",
      "[mp3 @ 0x7fa96460b500] Estimating duration from bitrate, this may be inaccurate\n",
      "[mp3 @ 0x7fa962f061c0] Estimating duration from bitrate, this may be inaccurate\n",
      "[mp3 @ 0x7fa96460b500] Estimating duration from bitrate, this may be inaccurate\n",
      "[mp3 @ 0x7fa9643044c0] Estimating duration from bitrate, this may be inaccurate\n",
      "[mp3 @ 0x7fa96460b500] Estimating duration from bitrate, this may be inaccurate\n",
      "[mp3 @ 0x7fa962f05f40] Estimating duration from bitrate, this may be inaccurate\n",
      "[mp3 @ 0x7fa96460b500] Estimating duration from bitrate, this may be inaccurate\n",
      "[mp3 @ 0x7fa96410b640] Estimating duration from bitrate, this may be inaccurate\n",
      "    Last message repeated 1 times\n",
      "[mp3 @ 0x7fa962f06100] Estimating duration from bitrate, this may be inaccurate\n",
      "[mp3 @ 0x7fa964304500] Estimating duration from bitrate, this may be inaccurate\n",
      "[mp3 @ 0x7fa962f05f40] Estimating duration from bitrate, this may be inaccurate\n",
      "[mp3 @ 0x7fa96410b600] Estimating duration from bitrate, this may be inaccurate\n",
      "[mp3 @ 0x7fa962f05f80] Estimating duration from bitrate, this may be inaccurate\n",
      "[mp3 @ 0x7fa96420c100] Estimating duration from bitrate, this may be inaccurate\n",
      "[mp3 @ 0x7fa962f06200] Estimating duration from bitrate, this may be inaccurate\n",
      "[mp3 @ 0x7fa962f06140] Estimating duration from bitrate, this may be inaccurate\n",
      "[mp3 @ 0x7fa96460c400] Estimating duration from bitrate, this may be inaccurate\n",
      "[mp3 @ 0x7fa964006300] Estimating duration from bitrate, this may be inaccurate\n",
      "[mp3 @ 0x7fa964006640] Estimating duration from bitrate, this may be inaccurate\n",
      "[mp3 @ 0x7fa964504400] Estimating duration from bitrate, this may be inaccurate\n",
      "[mp3 @ 0x7fa96410b640] Estimating duration from bitrate, this may be inaccurate\n",
      "[mp3 @ 0x7fa96460b540] Estimating duration from bitrate, this may be inaccurate\n",
      "[mp3 @ 0x7fa96460b500] Estimating duration from bitrate, this may be inaccurate\n",
      "[mp3 @ 0x7fa96410b640] Estimating duration from bitrate, this may be inaccurate\n",
      "[mp3 @ 0x7fa964006300] Estimating duration from bitrate, this may be inaccurate\n",
      "[mp3 @ 0x7fa962f05f80] Estimating duration from bitrate, this may be inaccurate\n",
      "[mp3 @ 0x7fa964006300] Estimating duration from bitrate, this may be inaccurate\n",
      "[mp3 @ 0x7fa96410b640] Estimating duration from bitrate, this may be inaccurate\n",
      "[mp3 @ 0x7fa964006300] Estimating duration from bitrate, this may be inaccurate\n",
      "[mp3 @ 0x7fa964304280] Estimating duration from bitrate, this may be inaccurate\n",
      "[mp3 @ 0x7fa96410b740] Estimating duration from bitrate, this may be inaccurate\n",
      "[mp3 @ 0x7fa96460b500] Estimating duration from bitrate, this may be inaccurate\n",
      "[mp3 @ 0x7fa964404a40] Estimating duration from bitrate, this may be inaccurate\n",
      "[mp3 @ 0x7fa964004380] Estimating duration from bitrate, this may be inaccurate\n",
      "[mp3 @ 0x7fa962f05f80] Estimating duration from bitrate, this may be inaccurate\n",
      "[mp3 @ 0x7fa96410b640] Estimating duration from bitrate, this may be inaccurate\n",
      "    Last message repeated 1 times\n",
      "[mp3 @ 0x7fa962f05f80] Estimating duration from bitrate, this may be inaccurate\n",
      "[mp3 @ 0x7fa964404780] Estimating duration from bitrate, this may be inaccurate\n",
      "[mp3 @ 0x7fa962f06380] Estimating duration from bitrate, this may be inaccurate\n",
      "[mp3 @ 0x7fa96460c400] Estimating duration from bitrate, this may be inaccurate\n",
      "[mp3 @ 0x7fa96410b880] Estimating duration from bitrate, this may be inaccurate\n",
      "[mp3 @ 0x7fa96410b800] Estimating duration from bitrate, this may be inaccurate\n",
      "[mp3 @ 0x7fa96400a880] Estimating duration from bitrate, this may be inaccurate\n",
      "[mp3 @ 0x7fa962f05f40] Estimating duration from bitrate, this may be inaccurate\n",
      "[mp3 @ 0x7fa964404740] Estimating duration from bitrate, this may be inaccurate\n",
      "[mp3 @ 0x7fa96410b640] Estimating duration from bitrate, this may be inaccurate\n",
      "[mp3 @ 0x7fa96460b500] Estimating duration from bitrate, this may be inaccurate\n",
      "[mp3 @ 0x7fa96410b640] Estimating duration from bitrate, this may be inaccurate\n",
      "[mp3 @ 0x7fa962f05f80] Estimating duration from bitrate, this may be inaccurate\n",
      "[mp3 @ 0x7fa964004380] Estimating duration from bitrate, this may be inaccurate\n",
      "[mp3 @ 0x7fa962f05f40] Estimating duration from bitrate, this may be inaccurate\n",
      "[mp3 @ 0x7fa96460c400] Estimating duration from bitrate, this may be inaccurate\n",
      "[mp3 @ 0x7fa96460b500] Estimating duration from bitrate, this may be inaccurate\n",
      "[mp3 @ 0x7fa96410b680] Estimating duration from bitrate, this may be inaccurate\n",
      "[mp3 @ 0x7fa96410bac0] Estimating duration from bitrate, this may be inaccurate\n",
      "[mp3 @ 0x7fa96400a880] Estimating duration from bitrate, this may be inaccurate\n",
      "[mp3 @ 0x7fa964004d40] Estimating duration from bitrate, this may be inaccurate\n",
      "[mp3 @ 0x7fa96410b640] Estimating duration from bitrate, this may be inaccurate\n",
      "[mp3 @ 0x7fa96410b600] Estimating duration from bitrate, this may be inaccurate\n",
      "[mp3 @ 0x7fa962f05f80] Estimating duration from bitrate, this may be inaccurate\n",
      "    Last message repeated 1 times\n",
      "[mp3 @ 0x7fa964404780] Estimating duration from bitrate, this may be inaccurate\n",
      "[mp3 @ 0x7fa9640065c0] Estimating duration from bitrate, this may be inaccurate\n",
      "[mp3 @ 0x7fa96460b500] Estimating duration from bitrate, this may be inaccurate\n",
      "[mp3 @ 0x7fa964404780] Estimating duration from bitrate, this may be inaccurate\n",
      "[mp3 @ 0x7fa962f05f80] Estimating duration from bitrate, this may be inaccurate\n",
      "    Last message repeated 3 times\n",
      "[mp3 @ 0x7fa964006300] Estimating duration from bitrate, this may be inaccurate\n",
      "[mp3 @ 0x7fa96460c400] Estimating duration from bitrate, this may be inaccurate\n",
      "[mp3 @ 0x7fa96460b500] Estimating duration from bitrate, this may be inaccurate\n",
      "[mp3 @ 0x7fa96460c400] Estimating duration from bitrate, this may be inaccurate\n",
      "[mp3 @ 0x7fa962f05f80] Estimating duration from bitrate, this may be inaccurate\n",
      "[mp3 @ 0x7fa96410b600] Estimating duration from bitrate, this may be inaccurate\n",
      "[mp3 @ 0x7fa962f05f40] Estimating duration from bitrate, this may be inaccurate\n",
      "    Last message repeated 1 times\n",
      "[mp3 @ 0x7fa96420c100] Estimating duration from bitrate, this may be inaccurate\n",
      "[mp3 @ 0x7fa962f05f40] Estimating duration from bitrate, this may be inaccurate\n",
      "    Last message repeated 1 times\n",
      "[mp3 @ 0x7fa96460b5c0] Estimating duration from bitrate, this may be inaccurate\n",
      "[mp3 @ 0x7fa962f05f40] Estimating duration from bitrate, this may be inaccurate\n",
      "[mp3 @ 0x7fa964304280] Estimating duration from bitrate, this may be inaccurate\n",
      "[mp3 @ 0x7fa964009500] Estimating duration from bitrate, this may be inaccurate\n",
      "[mp3 @ 0x7fa964009900] Estimating duration from bitrate, this may be inaccurate\n"
     ]
    },
    {
     "name": "stderr",
     "output_type": "stream",
     "text": [
      "[mp3 @ 0x7fa96460b500] Estimating duration from bitrate, this may be inaccurate\n",
      "[mp3 @ 0x7fa964009300] Estimating duration from bitrate, this may be inaccurate\n",
      "    Last message repeated 2 times\n",
      "[mp3 @ 0x7fa96410b640] Estimating duration from bitrate, this may be inaccurate\n",
      "[mp3 @ 0x7fa962f05f40] Estimating duration from bitrate, this may be inaccurate\n",
      "[mp3 @ 0x7fa96410b600] Estimating duration from bitrate, this may be inaccurate\n",
      "[mp3 @ 0x7fa96460c400] Estimating duration from bitrate, this may be inaccurate\n",
      "[mp3 @ 0x7fa9640098c0] Estimating duration from bitrate, this may be inaccurate\n",
      "[mp3 @ 0x7fa964009300] Estimating duration from bitrate, this may be inaccurate\n",
      "[mp3 @ 0x7fa96400a880] Estimating duration from bitrate, this may be inaccurate\n",
      "[mp3 @ 0x7fa962f05f80] Estimating duration from bitrate, this may be inaccurate\n",
      "[mp3 @ 0x7fa96460b500] Estimating duration from bitrate, this may be inaccurate\n",
      "    Last message repeated 1 times\n",
      "[mp3 @ 0x7fa962f05f40] Estimating duration from bitrate, this may be inaccurate\n",
      "[mp3 @ 0x7fa964004380] Estimating duration from bitrate, this may be inaccurate\n",
      "[mp3 @ 0x7fa964009300] Estimating duration from bitrate, this may be inaccurate\n",
      "[mp3 @ 0x7fa96410b600] Estimating duration from bitrate, this may be inaccurate\n",
      "[mp3 @ 0x7fa964004380] Estimating duration from bitrate, this may be inaccurate\n",
      "[mp3 @ 0x7fa96460b500] Estimating duration from bitrate, this may be inaccurate\n",
      "[mp3 @ 0x7fa962f05f80] Estimating duration from bitrate, this may be inaccurate\n",
      "[mp3 @ 0x7fa96460b500] Estimating duration from bitrate, this may be inaccurate\n",
      "[mp3 @ 0x7fa96410b640] Estimating duration from bitrate, this may be inaccurate\n",
      "[mp3 @ 0x7fa9640045c0] Estimating duration from bitrate, this may be inaccurate\n",
      "[mp3 @ 0x7fa96410b640] Estimating duration from bitrate, this may be inaccurate\n",
      "    Last message repeated 1 times\n",
      "[mp3 @ 0x7fa96460c400] Estimating duration from bitrate, this may be inaccurate\n",
      "[mp3 @ 0x7fa962f05f80] Estimating duration from bitrate, this may be inaccurate\n",
      "[mp3 @ 0x7fa964004380] Estimating duration from bitrate, this may be inaccurate\n",
      "[mp3 @ 0x7fa96460b500] Estimating duration from bitrate, this may be inaccurate\n",
      "[mp3 @ 0x7fa964304280] Estimating duration from bitrate, this may be inaccurate\n",
      "[mp3 @ 0x7fa964004380] Estimating duration from bitrate, this may be inaccurate\n",
      "[mp3 @ 0x7fa96460b500] Estimating duration from bitrate, this may be inaccurate\n",
      "[mp3 @ 0x7fa964006300] Estimating duration from bitrate, this may be inaccurate\n",
      "[mp3 @ 0x7fa964504300] Estimating duration from bitrate, this may be inaccurate\n",
      "[mp3 @ 0x7fa964006300] Estimating duration from bitrate, this may be inaccurate\n",
      "[mp3 @ 0x7fa962f06100] Estimating duration from bitrate, this may be inaccurate\n",
      "[mp3 @ 0x7fa964006300] Estimating duration from bitrate, this may be inaccurate\n",
      "[mp3 @ 0x7fa964404800] Estimating duration from bitrate, this may be inaccurate\n",
      "[mp3 @ 0x7fa96410b640] Estimating duration from bitrate, this may be inaccurate\n",
      "[mp3 @ 0x7fa96460b500] Estimating duration from bitrate, this may be inaccurate\n",
      "[mp3 @ 0x7fa96420c100] Estimating duration from bitrate, this may be inaccurate\n",
      "[mp3 @ 0x7fa964304280] Estimating duration from bitrate, this may be inaccurate\n",
      "[mp3 @ 0x7fa96410b640] Estimating duration from bitrate, this may be inaccurate\n",
      "[mp3 @ 0x7fa96460b500] Estimating duration from bitrate, this may be inaccurate\n",
      "[mp3 @ 0x7fa964004e40] Estimating duration from bitrate, this may be inaccurate\n",
      "[mp3 @ 0x7fa96460c400] Estimating duration from bitrate, this may be inaccurate\n",
      "[mp3 @ 0x7fa964006300] Estimating duration from bitrate, this may be inaccurate\n",
      "[mp3 @ 0x7fa96460b5c0] Estimating duration from bitrate, this may be inaccurate\n",
      "[mp3 @ 0x7fa96410b7c0] Estimating duration from bitrate, this may be inaccurate\n",
      "[mp3 @ 0x7fa962f05f80] Estimating duration from bitrate, this may be inaccurate\n",
      "    Last message repeated 1 times\n",
      "[mp3 @ 0x7fa96460b500] Estimating duration from bitrate, this may be inaccurate\n",
      "[mp3 @ 0x7fa96410b880] Estimating duration from bitrate, this may be inaccurate\n",
      "[mp3 @ 0x7fa96410b800] Estimating duration from bitrate, this may be inaccurate\n",
      "[mp3 @ 0x7fa964304280] Estimating duration from bitrate, this may be inaccurate\n",
      "[mp3 @ 0x7fa96410b640] Estimating duration from bitrate, this may be inaccurate\n",
      "    Last message repeated 1 times\n",
      "[mp3 @ 0x7fa96460b500] Estimating duration from bitrate, this may be inaccurate\n",
      "[mp3 @ 0x7fa96460c400] Estimating duration from bitrate, this may be inaccurate\n",
      "[mp3 @ 0x7fa962f05f80] Estimating duration from bitrate, this may be inaccurate\n",
      "[mp3 @ 0x7fa96410b740] Estimating duration from bitrate, this may be inaccurate\n",
      "[mp3 @ 0x7fa964504300] Estimating duration from bitrate, this may be inaccurate\n",
      "[mp3 @ 0x7fa962f05f80] Estimating duration from bitrate, this may be inaccurate\n",
      "[mp3 @ 0x7fa964006300] Estimating duration from bitrate, this may be inaccurate\n",
      "[mp3 @ 0x7fa96460b500] Estimating duration from bitrate, this may be inaccurate\n",
      "[mp3 @ 0x7fa96410b640] Estimating duration from bitrate, this may be inaccurate\n",
      "[mp3 @ 0x7fa96460c400] Estimating duration from bitrate, this may be inaccurate\n",
      "[mp3 @ 0x7fa964004380] Estimating duration from bitrate, this may be inaccurate\n",
      "[mp3 @ 0x7fa962f06180] Estimating duration from bitrate, this may be inaccurate\n",
      "[mp3 @ 0x7fa964009340] Estimating duration from bitrate, this may be inaccurate\n",
      "[mp3 @ 0x7fa96460b500] Estimating duration from bitrate, this may be inaccurate\n",
      "[mp3 @ 0x7fa96410b640] Estimating duration from bitrate, this may be inaccurate\n",
      "[mp3 @ 0x7fa964304280] Estimating duration from bitrate, this may be inaccurate\n",
      "[mp3 @ 0x7fa96460c400] Estimating duration from bitrate, this may be inaccurate\n",
      "[mp3 @ 0x7fa962f05f40] Estimating duration from bitrate, this may be inaccurate\n",
      "    Last message repeated 1 times\n",
      "[mp3 @ 0x7fa96410b6c0] Estimating duration from bitrate, this may be inaccurate\n",
      "[mp3 @ 0x7fa96410b600] Estimating duration from bitrate, this may be inaccurate\n",
      "    Last message repeated 1 times\n",
      "[mp3 @ 0x7fa96460b500] Estimating duration from bitrate, this may be inaccurate\n",
      "[mp3 @ 0x7fa962f05f40] Estimating duration from bitrate, this may be inaccurate\n",
      "[mp3 @ 0x7fa96460c400] Estimating duration from bitrate, this may be inaccurate\n",
      "[mp3 @ 0x7fa96460b5c0] Estimating duration from bitrate, this may be inaccurate\n",
      "[mp3 @ 0x7fa964009300] Estimating duration from bitrate, this may be inaccurate\n",
      "[mp3 @ 0x7fa96460c400] Estimating duration from bitrate, this may be inaccurate\n",
      "[mp3 @ 0x7fa96460c740] Estimating duration from bitrate, this may be inaccurate\n",
      "[mp3 @ 0x7fa96410b640] Estimating duration from bitrate, this may be inaccurate\n",
      "[mp3 @ 0x7fa962f05f80] Estimating duration from bitrate, this may be inaccurate\n",
      "[mp3 @ 0x7fa964304280] Estimating duration from bitrate, this may be inaccurate\n",
      "[mp3 @ 0x7fa96410b880] Estimating duration from bitrate, this may be inaccurate\n",
      "[mp3 @ 0x7fa96460c400] Estimating duration from bitrate, this may be inaccurate\n",
      "[mp3 @ 0x7fa962f05f80] Estimating duration from bitrate, this may be inaccurate\n",
      "[mp3 @ 0x7fa96460b500] Estimating duration from bitrate, this may be inaccurate\n",
      "[mp3 @ 0x7fa96460c400] Estimating duration from bitrate, this may be inaccurate\n",
      "[mp3 @ 0x7fa964009300] Estimating duration from bitrate, this may be inaccurate\n",
      "[mp3 @ 0x7fa96460b5c0] Estimating duration from bitrate, this may be inaccurate\n",
      "[mp3 @ 0x7fa96410b640] Estimating duration from bitrate, this may be inaccurate\n",
      "    Last message repeated 1 times\n",
      "[mp3 @ 0x7fa96460b500] Estimating duration from bitrate, this may be inaccurate\n",
      "[mp3 @ 0x7fa962f05f80] Estimating duration from bitrate, this may be inaccurate\n",
      "[mp3 @ 0x7fa96410b640] Estimating duration from bitrate, this may be inaccurate\n",
      "[mp3 @ 0x7fa964009300] Estimating duration from bitrate, this may be inaccurate\n",
      "[mp3 @ 0x7fa964304280] Estimating duration from bitrate, this may be inaccurate\n",
      "[mp3 @ 0x7fa962f06040] Estimating duration from bitrate, this may be inaccurate\n",
      "[mp3 @ 0x7fa96410b600] Estimating duration from bitrate, this may be inaccurate\n",
      "[mp3 @ 0x7fa964304280] Estimating duration from bitrate, this may be inaccurate\n",
      "[mp3 @ 0x7fa964009300] Estimating duration from bitrate, this may be inaccurate\n",
      "[mp3 @ 0x7fa96460b5c0] Estimating duration from bitrate, this may be inaccurate\n",
      "[mp3 @ 0x7fa96410b640] Estimating duration from bitrate, this may be inaccurate\n",
      "[mp3 @ 0x7fa96460b500] Estimating duration from bitrate, this may be inaccurate\n",
      "[mp3 @ 0x7fa96410b640] Estimating duration from bitrate, this may be inaccurate\n",
      "[mp3 @ 0x7fa96460b5c0] Estimating duration from bitrate, this may be inaccurate\n",
      "[mp3 @ 0x7fa96410b640] Estimating duration from bitrate, this may be inaccurate\n"
     ]
    },
    {
     "name": "stderr",
     "output_type": "stream",
     "text": [
      "[mp3 @ 0x7fa96460b500] Estimating duration from bitrate, this may be inaccurate\n",
      "[mp3 @ 0x7fa96410b740] Estimating duration from bitrate, this may be inaccurate\n",
      "[mp3 @ 0x7fa962f06040] Estimating duration from bitrate, this may be inaccurate\n",
      "[mp3 @ 0x7fa96410b640] Estimating duration from bitrate, this may be inaccurate\n",
      "[mp3 @ 0x7fa964009300] Estimating duration from bitrate, this may be inaccurate\n",
      "[mp3 @ 0x7fa96460b500] Estimating duration from bitrate, this may be inaccurate\n",
      "[mp3 @ 0x7fa96410b600] Estimating duration from bitrate, this may be inaccurate\n",
      "    Last message repeated 1 times\n",
      "[mp3 @ 0x7fa96460b680] Estimating duration from bitrate, this may be inaccurate\n",
      "[mp3 @ 0x7fa964404780] Estimating duration from bitrate, this may be inaccurate\n",
      "[mp3 @ 0x7fa96410b640] Estimating duration from bitrate, this may be inaccurate\n",
      "[mp3 @ 0x7fa96410b600] Estimating duration from bitrate, this may be inaccurate\n",
      "[mp3 @ 0x7fa964009900] Estimating duration from bitrate, this may be inaccurate\n",
      "[mp3 @ 0x7fa964004380] Estimating duration from bitrate, this may be inaccurate\n",
      "[mp3 @ 0x7fa962f05f80] Estimating duration from bitrate, this may be inaccurate\n",
      "[mp3 @ 0x7fa96460b500] Estimating duration from bitrate, this may be inaccurate\n",
      "[mp3 @ 0x7fa964404740] Estimating duration from bitrate, this may be inaccurate\n",
      "[mp3 @ 0x7fa964009300] Estimating duration from bitrate, this may be inaccurate\n",
      "[mp3 @ 0x7fa964304280] Estimating duration from bitrate, this may be inaccurate\n",
      "[mp3 @ 0x7fa96460b500] Estimating duration from bitrate, this may be inaccurate\n",
      "[mp3 @ 0x7fa964009300] Estimating duration from bitrate, this may be inaccurate\n",
      "[mp3 @ 0x7fa96460b500] Estimating duration from bitrate, this may be inaccurate\n",
      "[mp3 @ 0x7fa96410b9c0] Estimating duration from bitrate, this may be inaccurate\n",
      "[mp3 @ 0x7fa96410b840] Estimating duration from bitrate, this may be inaccurate\n",
      "[mp3 @ 0x7fa962f05f80] Estimating duration from bitrate, this may be inaccurate\n",
      "[mp3 @ 0x7fa96410b640] Estimating duration from bitrate, this may be inaccurate\n",
      "    Last message repeated 1 times\n",
      "[mp3 @ 0x7fa96460c400] Estimating duration from bitrate, this may be inaccurate\n",
      "[mp3 @ 0x7fa96410b640] Estimating duration from bitrate, this may be inaccurate\n",
      "[mp3 @ 0x7fa962f06040] Estimating duration from bitrate, this may be inaccurate\n",
      "[mp3 @ 0x7fa96460c400] Estimating duration from bitrate, this may be inaccurate\n",
      "[mp3 @ 0x7fa96410b800] Estimating duration from bitrate, this may be inaccurate\n",
      "[mp3 @ 0x7fa96410bb40] Estimating duration from bitrate, this may be inaccurate\n",
      "[mp3 @ 0x7fa96460b500] Estimating duration from bitrate, this may be inaccurate\n",
      "[mp3 @ 0x7fa96420c100] Estimating duration from bitrate, this may be inaccurate\n",
      "[mp3 @ 0x7fa962f05f80] Estimating duration from bitrate, this may be inaccurate\n",
      "[mp3 @ 0x7fa96410b640] Estimating duration from bitrate, this may be inaccurate\n",
      "[mp3 @ 0x7fa962f05f80] Estimating duration from bitrate, this may be inaccurate\n",
      "    Last message repeated 1 times\n",
      "[mp3 @ 0x7fa96410b640] Estimating duration from bitrate, this may be inaccurate\n",
      "    Last message repeated 1 times\n",
      "[mp3 @ 0x7fa964009300] Estimating duration from bitrate, this may be inaccurate\n",
      "[mp3 @ 0x7fa964005240] Estimating duration from bitrate, this may be inaccurate\n",
      "[mp3 @ 0x7fa96410b740] Estimating duration from bitrate, this may be inaccurate\n",
      "[mp3 @ 0x7fa96410b600] Estimating duration from bitrate, this may be inaccurate\n",
      "[mp3 @ 0x7fa96460b500] Estimating duration from bitrate, this may be inaccurate\n",
      "[mp3 @ 0x7fa96410b640] Estimating duration from bitrate, this may be inaccurate\n",
      "[mp3 @ 0x7fa962f06100] Estimating duration from bitrate, this may be inaccurate\n",
      "[mp3 @ 0x7fa962f05f40] Estimating duration from bitrate, this may be inaccurate\n",
      "[mp3 @ 0x7fa964009300] Estimating duration from bitrate, this may be inaccurate\n",
      "[mp3 @ 0x7fa96460c400] Estimating duration from bitrate, this may be inaccurate\n",
      "[mp3 @ 0x7fa964009300] Estimating duration from bitrate, this may be inaccurate\n",
      "    Last message repeated 1 times\n",
      "[mp3 @ 0x7fa96410b7c0] Estimating duration from bitrate, this may be inaccurate\n",
      "[mp3 @ 0x7fa964304280] Estimating duration from bitrate, this may be inaccurate\n",
      "[mp3 @ 0x7fa962f05f80] Estimating duration from bitrate, this may be inaccurate\n",
      "    Last message repeated 1 times\n",
      "[mp3 @ 0x7fa96410b640] Estimating duration from bitrate, this may be inaccurate\n",
      "[mp3 @ 0x7fa964009300] Estimating duration from bitrate, this may be inaccurate\n",
      "    Last message repeated 1 times\n",
      "[mp3 @ 0x7fa96410b640] Estimating duration from bitrate, this may be inaccurate\n",
      "[mp3 @ 0x7fa96460c400] Estimating duration from bitrate, this may be inaccurate\n",
      "[mp3 @ 0x7fa96410b600] Estimating duration from bitrate, this may be inaccurate\n",
      "[mp3 @ 0x7fa964304280] Estimating duration from bitrate, this may be inaccurate\n",
      "[mp3 @ 0x7fa96460b500] Estimating duration from bitrate, this may be inaccurate\n",
      "[mp3 @ 0x7fa96460c400] Estimating duration from bitrate, this may be inaccurate\n",
      "[mp3 @ 0x7fa96460b500] Estimating duration from bitrate, this may be inaccurate\n",
      "[mp3 @ 0x7fa964006300] Estimating duration from bitrate, this may be inaccurate\n",
      "[mp3 @ 0x7fa96460b500] Estimating duration from bitrate, this may be inaccurate\n",
      "[mp3 @ 0x7fa96460c400] Estimating duration from bitrate, this may be inaccurate\n",
      "[mp3 @ 0x7fa96460c400] Estimating duration from bitrate, this may be inaccurate\n",
      "[mp3 @ 0x7fa96410b640] Estimating duration from bitrate, this may be inaccurate\n",
      "[mp3 @ 0x7fa962f05f80] Estimating duration from bitrate, this may be inaccurate\n",
      "    Last message repeated 1 times\n",
      "[mp3 @ 0x7fa96410b640] Estimating duration from bitrate, this may be inaccurate\n",
      "[mp3 @ 0x7fa96460b500] Estimating duration from bitrate, this may be inaccurate\n",
      "[mp3 @ 0x7fa962f05f40] Estimating duration from bitrate, this may be inaccurate\n",
      "    Last message repeated 1 times\n",
      "[mp3 @ 0x7fa96410b7c0] Estimating duration from bitrate, this may be inaccurate\n",
      "[mp3 @ 0x7fa964404780] Estimating duration from bitrate, this may be inaccurate\n",
      "[mp3 @ 0x7fa964304280] Estimating duration from bitrate, this may be inaccurate\n",
      "[mp3 @ 0x7fa962f05f80] Estimating duration from bitrate, this may be inaccurate\n",
      "[mp3 @ 0x7fa964005240] Estimating duration from bitrate, this may be inaccurate\n"
     ]
    },
    {
     "name": "stdout",
     "output_type": "stream",
     "text": [
      "Generate full audio: ./Huckleberry/project_file/audio/76-2_txt.mp3\n",
      "./Huckleberry/project_file/audio/76-2_txt.mp3\n"
     ]
    },
    {
     "name": "stderr",
     "output_type": "stream",
     "text": [
      "[mp3 @ 0x7fa962f06040] Estimating duration from bitrate, this may be inaccurate\n",
      "[mp3 @ 0x7fa96460b500] Estimating duration from bitrate, this may be inaccurate\n",
      "[mp3 @ 0x7fa96460c4c0] Estimating duration from bitrate, this may be inaccurate\n",
      "[mp3 @ 0x7fa964005400] Estimating duration from bitrate, this may be inaccurate\n",
      "[mp3 @ 0x7fa96460b540] Estimating duration from bitrate, this may be inaccurate\n",
      "[mp3 @ 0x7fa962f05f80] Estimating duration from bitrate, this may be inaccurate\n",
      "size=   81844kB time=05:49:11.97 bitrate=  32.0kbits/s speed=4.08e+03x    \n",
      "video:0kB audio:81844kB subtitle:0kB other streams:0kB global headers:0kB muxing overhead: 0.000283%\n"
     ]
    }
   ],
   "source": [
    "# Merge audio files => full length\n",
    "print(test_tta.merge_audio_files(file_name))"
   ]
  },
  {
   "cell_type": "code",
   "execution_count": 57,
   "id": "b382e4e1",
   "metadata": {},
   "outputs": [
    {
     "name": "stderr",
     "output_type": "stream",
     "text": [
      "ffmpeg version 5.1.2 Copyright (c) 2000-2022 the FFmpeg developers\n",
      "  built with Apple clang version 14.0.0 (clang-1400.0.29.102)\n",
      "  configuration: --prefix=/usr/local/Cellar/ffmpeg/5.1.2 --enable-shared --enable-pthreads --enable-version3 --cc=clang --host-cflags= --host-ldflags= --enable-ffplay --enable-gnutls --enable-gpl --enable-libaom --enable-libbluray --enable-libdav1d --enable-libmp3lame --enable-libopus --enable-librav1e --enable-librist --enable-librubberband --enable-libsnappy --enable-libsrt --enable-libtesseract --enable-libtheora --enable-libvidstab --enable-libvmaf --enable-libvorbis --enable-libvpx --enable-libwebp --enable-libx264 --enable-libx265 --enable-libxml2 --enable-libxvid --enable-lzma --enable-libfontconfig --enable-libfreetype --enable-frei0r --enable-libass --enable-libopencore-amrnb --enable-libopencore-amrwb --enable-libopenjpeg --enable-libspeex --enable-libsoxr --enable-libzmq --enable-libzimg --disable-libjack --disable-indev=jack --enable-videotoolbox\n",
      "  libavutil      57. 28.100 / 57. 28.100\n",
      "  libavcodec     59. 37.100 / 59. 37.100\n",
      "  libavformat    59. 27.100 / 59. 27.100\n",
      "  libavdevice    59.  7.100 / 59.  7.100\n",
      "  libavfilter     8. 44.100 /  8. 44.100\n",
      "  libswscale      6.  7.100 /  6.  7.100\n",
      "  libswresample   4.  7.100 /  4.  7.100\n",
      "  libpostproc    56.  6.100 / 56.  6.100\n",
      "Input #0, png_pipe, from './Huckleberry/project_file/image/76-2_txt.png':\n",
      "  Duration: N/A, bitrate: N/A\n",
      "  Stream #0:0: Video: png, rgba(pc), 1280x720 [SAR 2835:2835 DAR 16:9], 25 fps, 25 tbr, 25 tbn\n",
      "Input #1, mp3, from './Huckleberry/project_file/audio/76-2_txt.mp3':\n",
      "  Metadata:\n",
      "    encoder         : Lavf59.27.100\n",
      "  Duration: 05:49:11.98, start: 0.022042, bitrate: 32 kb/s\n",
      "  Stream #1:0: Audio: mp3, 24000 Hz, mono, fltp, 32 kb/s\n",
      "Stream mapping:\n",
      "  Stream #0:0 -> #0:0 (png (native) -> h264 (libx264))\n",
      "  Stream #1:0 -> #0:1 (mp3 (mp3float) -> aac (native))\n",
      "Press [q] to stop, [?] for help\n",
      "[libx264 @ 0x7f7f9dd0b240] using SAR=1/1\n",
      "[libx264 @ 0x7f7f9dd0b240] using cpu capabilities: MMX2 SSE2Fast SSSE3 SSE4.2 AVX FMA3 BMI2 AVX2\n",
      "[libx264 @ 0x7f7f9dd0b240] profile High, level 3.1, 4:2:0, 8-bit\n",
      "[libx264 @ 0x7f7f9dd0b240] 264 - core 164 r3095 baee400 - H.264/MPEG-4 AVC codec - Copyleft 2003-2022 - http://www.videolan.org/x264.html - options: cabac=1 ref=3 deblock=1:-3:-3 analyse=0x3:0x113 me=hex subme=7 psy=1 psy_rd=2.00:0.70 mixed_ref=1 me_range=16 chroma_me=1 trellis=1 8x8dct=1 cqm=0 deadzone=21,11 fast_pskip=1 chroma_qp_offset=-4 threads=12 lookahead_threads=2 sliced_threads=0 nr=0 decimate=1 interlaced=0 bluray_compat=0 constrained_intra=0 bframes=3 b_pyramid=2 b_adapt=1 b_bias=0 direct=1 weightb=1 open_gop=0 weightp=2 keyint=250 keyint_min=25 scenecut=40 intra_refresh=0 rc_lookahead=40 rc=crf mbtree=1 crf=23.0 qcomp=0.60 qpmin=0 qpmax=69 qpstep=4 ip_ratio=1.40 aq=1:1.20\n",
      "[aac @ 0x7f7f9dd0c640] Too many bits 8192.000000 > 6144 per frame requested, clamping to max\n",
      "Output #0, mp4, to './Huckleberry/project_file/video/76-2_txt.mp4':\n",
      "  Metadata:\n",
      "    encoder         : Lavf59.27.100\n",
      "  Stream #0:0: Video: h264 (avc1 / 0x31637661), yuv420p(tv, progressive), 1280x720 [SAR 1:1 DAR 16:9], q=2-31, 25 fps, 12800 tbn\n",
      "    Metadata:\n",
      "      encoder         : Lavc59.37.100 libx264\n",
      "    Side data:\n",
      "      cpb: bitrate max/min/avg: 0/0/0 buffer size: 0 vbv_delay: N/A\n",
      "  Stream #0:1: Audio: aac (LC) (mp4a / 0x6134706D), 24000 Hz, mono, fltp, 144 kb/s\n",
      "    Metadata:\n",
      "      encoder         : Lavc59.37.100 aac\n",
      "frame=523822 fps=100 q=28.0 size=  630272kB time=05:49:10.52 bitrate= 246.4kbits/s speed=3.99x    \r"
     ]
    },
    {
     "name": "stdout",
     "output_type": "stream",
     "text": [
      "Generate full video: ./Huckleberry/project_file/video/76-2_txt.mp4\n",
      "./Huckleberry/project_file/video/76-2_txt.mp4\n"
     ]
    },
    {
     "name": "stderr",
     "output_type": "stream",
     "text": [
      "frame=523856 fps=100 q=-1.0 Lsize=  643050kB time=05:49:14.12 bitrate= 251.4kbits/s speed=3.99x    \n",
      "video:401963kB audio:228433kB subtitle:0kB other streams:0kB global headers:0kB muxing overhead: 2.007327%\n",
      "[libx264 @ 0x7f7f9dd0b240] frame I:2096  Avg QP:15.15  size:145802\n",
      "[libx264 @ 0x7f7f9dd0b240] frame P:132012 Avg QP:15.55  size:   507\n",
      "[libx264 @ 0x7f7f9dd0b240] frame B:389748 Avg QP:19.33  size:   100\n",
      "[libx264 @ 0x7f7f9dd0b240] consecutive B-frames:  0.8%  0.0%  0.0% 99.2%\n",
      "[libx264 @ 0x7f7f9dd0b240] mb I  I16..4:  1.2% 65.1% 33.6%\n",
      "[libx264 @ 0x7f7f9dd0b240] mb P  I16..4:  0.0%  0.0%  0.0%  P16..4:  1.6%  0.2%  0.2%  0.0%  0.0%    skip:98.0%\n",
      "[libx264 @ 0x7f7f9dd0b240] mb B  I16..4:  0.0%  0.0%  0.0%  B16..8:  2.0%  0.0%  0.0%  direct: 0.0%  skip:98.0%  L0:65.9% L1:33.9% BI: 0.2%\n",
      "[libx264 @ 0x7f7f9dd0b240] 8x8 transform intra:65.1% inter:83.1%\n",
      "[libx264 @ 0x7f7f9dd0b240] coded y,uvDC,uvAC intra: 96.8% 88.3% 77.9% inter: 0.2% 0.2% 0.0%\n",
      "[libx264 @ 0x7f7f9dd0b240] i16 v,h,dc,p: 32% 13% 11% 43%\n",
      "[libx264 @ 0x7f7f9dd0b240] i8 v,h,dc,ddl,ddr,vr,hd,vl,hu: 25% 18% 10%  5%  7%  9%  7%  9%  9%\n",
      "[libx264 @ 0x7f7f9dd0b240] i4 v,h,dc,ddl,ddr,vr,hd,vl,hu: 17% 17%  8%  8% 10% 11%  9%  9% 11%\n",
      "[libx264 @ 0x7f7f9dd0b240] i8c dc,h,v,p: 47% 23% 20% 10%\n",
      "[libx264 @ 0x7f7f9dd0b240] Weighted P-Frames: Y:0.0% UV:0.0%\n",
      "[libx264 @ 0x7f7f9dd0b240] ref P L0: 80.7%  0.2% 18.8%  0.3%\n",
      "[libx264 @ 0x7f7f9dd0b240] ref B L0: 38.8% 61.1%  0.1%\n",
      "[libx264 @ 0x7f7f9dd0b240] ref B L1: 99.4%  0.6%\n",
      "[libx264 @ 0x7f7f9dd0b240] kb/s:157.15\n",
      "[aac @ 0x7f7f9dd0c640] Qavg: 65525.410\n"
     ]
    }
   ],
   "source": [
    "# Audio + Image => Video\n",
    "print(test_tta.merge_video_file(file_name))"
   ]
  },
  {
   "cell_type": "code",
   "execution_count": 31,
   "id": "004bc195",
   "metadata": {},
   "outputs": [
    {
     "name": "stdout",
     "output_type": "stream",
     "text": [
      "0:00:00 Chapter 1\n",
      "0:08:13 Chaptor 2\n",
      "0:21:49 Chaptor 3\n",
      "0:31:23 Chaptor 4\n",
      "0:39:27 Chaptor 5\n",
      "0:48:57 Chaptor 6\n",
      "1:05:17 Chaptor 7\n",
      "1:20:05 Chaptor 8\n",
      "1:47:14 Chaptor 9\n",
      "1:56:27 Chaptor 10\n",
      "2:04:15 Chaptor 11\n",
      "2:21:00 Chaptor 12\n",
      "2:37:46 Chaptor 13\n",
      "2:49:36 Chaptor 14\n",
      "2:59:21 Chaptor 15\n",
      "3:13:22 Chaptor 16\n",
      "3:33:29 Chaptor 17\n",
      "3:53:08 Chaptor 18\n",
      "4:21:09 Chaptor 19\n",
      "4:41:08 Chaptor 20\n"
     ]
    }
   ],
   "source": [
    "print(test_tta.gen_youtube_chapter_marker(file_name))"
   ]
  },
  {
   "cell_type": "code",
   "execution_count": 55,
   "id": "a692882a",
   "metadata": {},
   "outputs": [
    {
     "name": "stdout",
     "output_type": "stream",
     "text": [
      "0:00:00 Chapter 1\n",
      "0:00:05 Chaptor 21\n",
      "0:22:09 Chaptor 22\n",
      "0:34:16 Chaptor 23\n",
      "0:48:06 Chaptor 24\n",
      "1:02:18 Chaptor 25\n",
      "1:19:36 Chaptor 26\n",
      "1:36:39 Chaptor 27\n",
      "1:51:56 Chaptor 28\n",
      "2:13:08 Chaptor 29\n",
      "2:35:10 Chaptor 30\n",
      "2:42:30 Chaptor 31\n",
      "3:03:34 Chaptor 32\n",
      "3:17:23 Chaptor 33\n",
      "3:33:20 Chaptor 34\n",
      "3:46:32 Chaptor 35\n",
      "4:02:29 Chaptor 36\n",
      "4:14:50 Chaptor 37\n",
      "4:29:44 Chaptor 38\n",
      "4:45:18 Chaptor 39\n",
      "4:57:28 Chaptor 40\n",
      "5:10:45 Chaptor 41\n",
      "5:26:59 Chaptor 42\n",
      "5:45:08 Chaptor 43\n"
     ]
    }
   ],
   "source": [
    "print(test_tta.gen_youtube_chapter_marker(file_name))"
   ]
  },
  {
   "cell_type": "code",
   "execution_count": null,
   "id": "fe22cd03",
   "metadata": {},
   "outputs": [],
   "source": []
  }
 ],
 "metadata": {
  "kernelspec": {
   "display_name": "Python tts env",
   "language": "python",
   "name": "tts_env"
  },
  "language_info": {
   "codemirror_mode": {
    "name": "ipython",
    "version": 3
   },
   "file_extension": ".py",
   "mimetype": "text/x-python",
   "name": "python",
   "nbconvert_exporter": "python",
   "pygments_lexer": "ipython3",
   "version": "3.9.12"
  }
 },
 "nbformat": 4,
 "nbformat_minor": 5
}
